<svg width="76" height="76" viewBox="0 0 76 76" fill="none" xmlns="http://www.w3.org/2000/svg">
<path d="M18.6139 32.3462L16.7686 32.3438V32.2057C16.79 32.2057 16.8214 32.1905 16.8636 32.16C16.9057 32.1295 16.9454 32.0733 16.9818 31.9914C17.019 31.9095 17.0528 31.7899 17.0851 31.631C17.1173 31.4721 17.133 31.2706 17.133 31.0258L17.1446 20.7616C17.1446 20.5064 17.1297 20.3017 17.0983 20.1484C17.0669 19.9951 17.033 19.8779 16.9958 19.796C16.9586 19.7142 16.9198 19.658 16.8776 19.6275C16.8355 19.597 16.8041 19.5809 16.7834 19.5809V19.4429H16.9256C17.3991 19.4332 17.8908 19.4036 18.4007 19.353C18.9106 19.3024 19.3973 19.2775 19.8601 19.2783C20.6592 19.2791 21.3319 19.3442 21.879 19.4726C22.4252 19.601 22.8665 19.7776 23.2029 20.0031C23.5392 20.2287 23.7805 20.4968 23.9276 20.809C24.0747 21.1212 24.1474 23.6022 24.1466 23.9698C24.1466 24.3374 24.0714 24.6769 23.9235 24.9883C23.7755 25.2998 23.5326 25.5654 23.1946 25.7846C22.8566 26.0037 22.4136 26.1771 21.8649 26.3039C21.3162 26.4307 20.641 26.4941 19.8403 26.4925L18.7998 26.4909C18.4924 26.4909 18.242 26.7325 18.242 27.0311L18.2362 31.0266C18.2362 31.2714 18.2511 31.4737 18.2825 31.6318C18.3139 31.7899 18.3478 31.9103 18.3842 31.9922C18.4205 32.0741 18.4602 32.1303 18.5023 32.1608C18.5445 32.1913 18.5808 32.2065 18.6131 32.2073V32.3454L18.6139 32.3462ZM19.8427 26.3552V26.3705C20.1807 26.3705 20.5361 26.336 20.9113 26.2645C21.2864 26.1939 21.6319 26.0663 21.9484 25.8825C22.2649 25.6995 22.5269 25.4515 22.7335 25.14C22.9392 24.8286 23.0434 24.4385 23.0434 23.9682C23.0434 23.4986 22.9417 20.9655 22.7368 20.6541C22.531 20.3418 22.2707 20.0938 21.9542 19.9092C21.6377 19.7254 21.2931 19.5946 20.9179 19.5167C20.5435 19.4397 20.1873 19.4003 19.8502 19.4003C19.5965 19.4003 19.3362 19.41 19.0668 19.43L18.7659 19.4525C18.4759 19.4742 18.2511 19.7094 18.2511 19.9927L18.2453 25.8111C18.2453 26.1096 18.4941 26.352 18.8015 26.3528L19.8427 26.3544V26.3552Z" fill="#67141C"/>
<path d="M29.9316 31.6568C29.9068 31.5035 29.8936 31.3004 29.8936 31.0444L29.8977 27.9478C29.9002 27.5192 29.8548 27.1187 29.7647 26.7446C29.6746 26.373 29.5217 26.0536 29.3102 25.7871C29.0961 25.5206 28.8152 25.3103 28.4681 25.157C28.1193 25.0037 27.6938 24.925 27.1897 24.925C26.7575 24.925 26.3724 24.9885 26.0302 25.1153C25.6881 25.2421 25.398 25.3994 25.1617 25.5896C24.9253 25.7775 24.7452 25.9765 24.6237 26.1868C24.5683 26.2807 24.5295 26.3698 24.5064 26.4533C24.4692 26.5865 24.5898 26.7109 24.7303 26.6909C24.7468 26.6885 24.7634 26.686 24.7815 26.6836C24.9344 26.6636 25.108 26.6483 25.3013 26.6395C25.4972 26.6283 25.7046 26.6355 25.9253 26.6547C26.1459 26.6764 26.3509 26.7222 26.5401 26.7944C26.7517 26.8755 26.936 26.9822 27.0913 27.1163C27.0393 27.1163 27.0037 27.1203 26.9814 27.1315C26.2046 27.162 25.5427 27.3089 25.003 27.573C24.4609 27.8378 24.0328 28.1613 23.7221 28.5442C23.4114 28.927 23.2089 29.3404 23.1147 29.7842C23.018 30.2305 23.0312 30.6439 23.1527 31.0267C23.2717 31.4096 23.4949 31.7331 23.8213 31.9931C24.1452 32.2532 24.5708 32.3952 25.0981 32.4153C25.6567 32.437 26.1715 32.2556 26.6442 31.8663C27.1194 31.4794 27.4772 30.989 27.7202 30.3967C27.8466 30.1101 27.9202 29.7802 27.9408 29.4014C27.9632 29.0233 27.9318 28.6557 27.8483 28.297C27.7648 27.9406 27.621 27.6147 27.4161 27.3233C27.2111 27.0328 26.9368 26.8201 26.5897 26.6868C26.4616 26.6347 26.3286 26.5994 26.1864 26.5777C26.0443 26.5576 25.9096 26.536 25.7831 26.5167C25.6567 26.4974 25.5443 26.4733 25.4451 26.4469C25.3435 26.4228 25.2741 26.3835 25.2311 26.3329C25.1567 26.2494 25.1476 26.1386 25.1997 25.9942C25.2534 25.8521 25.3642 25.71 25.5327 25.5656C25.6997 25.4235 25.9245 25.2991 26.2038 25.1915C26.4831 25.084 26.8112 25.0318 27.1897 25.0318C27.5681 25.0318 27.8648 25.1321 28.0813 25.3312C28.2954 25.5326 28.4549 25.7799 28.5606 26.0768C28.6639 26.3722 28.7292 26.6893 28.7565 27.0264C28.7813 27.3635 28.7945 27.6693 28.7945 27.947L28.7879 31.6841C28.7879 31.8639 28.7813 32.0437 28.7697 32.2235C28.7449 32.6192 28.7681 32.6144 28.8259 32.8656C29.3011 34.8184 31.1985 35.3875 33.0331 34.9693C33.3413 34.9099 33.6454 34.8337 33.9421 34.7486C34.1677 34.6892 34.3809 34.5961 34.6131 34.5632C34.733 34.5463 34.8073 34.4275 34.7718 34.3152C34.7371 34.206 34.6123 34.1466 34.5041 34.1932C34.2966 34.2823 34.0686 34.3071 33.8479 34.3417C33.0215 34.4725 32.067 34.4861 31.3175 34.1948C30.5812 33.9082 30.2052 33.3263 30.1225 32.616C30.0911 32.4257 30.12 32.1962 30.0349 32.0164M27.626 27.9285C27.7318 28.1846 27.7995 28.4511 27.8309 28.7336C27.8623 29.0137 27.8582 29.2954 27.8218 29.5756C27.7838 29.8581 27.7185 30.1198 27.6235 30.3654C27.5376 30.5684 27.4252 30.7699 27.2839 30.9625C27.1401 31.1576 26.9756 31.3237 26.7864 31.461C26.5947 31.5966 26.3905 31.7018 26.1699 31.774C25.9492 31.8438 25.7129 31.8551 25.4608 31.8021C25.2179 31.7628 25.0129 31.6753 24.8444 31.542C24.6774 31.4088 24.5386 31.2515 24.4279 31.0653C24.3179 30.8815 24.2386 30.6824 24.1915 30.4681C24.1469 30.2538 24.1221 30.0395 24.1221 29.8252C24.1246 29.3853 24.2056 29.0025 24.37 28.675C24.532 28.3491 24.7526 28.0778 25.0344 27.8635C25.3113 27.6492 25.6377 27.4919 26.0112 27.3908C26.355 27.2961 26.7203 27.2463 27.1029 27.2383C27.1657 27.2367 27.2268 27.2639 27.2657 27.3121C27.4161 27.4983 27.5367 27.703 27.6285 27.9285H27.626Z" fill="#67141C"/>
<path d="M32.8726 32.3662L31.043 32.3638V32.2258C31.0645 32.2258 31.0959 32.2129 31.138 32.1872C31.1802 32.1624 31.2198 32.1062 31.2562 32.0187C31.2934 31.932 31.3272 31.8116 31.3595 31.6583C31.3909 31.505 31.4074 31.3011 31.4074 31.0451L31.4198 16.9394C31.4198 16.88 31.4157 16.8198 31.4049 16.7612C31.3653 16.5453 31.3157 16.4017 31.2554 16.3286C31.1868 16.2467 31.1322 16.2058 31.0901 16.2058L31.043 16.0678C31.7619 15.8085 32.5263 16.3254 32.5255 17.0703L32.5123 31.0459C32.5123 31.3011 32.5247 31.5058 32.5511 31.6591C32.5768 31.8124 32.6115 31.9328 32.6536 32.0195C32.6949 32.1062 32.7371 32.1632 32.7792 32.188C32.8214 32.2137 32.8528 32.2266 32.8734 32.2266V32.3646L32.8726 32.3662Z" fill="#67141C"/>
<path d="M40.8865 32.3767L39.4196 32.3751L39.4262 27.9613C39.4262 27.6852 39.4138 27.3786 39.3882 27.0415C39.3626 26.7044 39.2973 26.3874 39.1924 26.0912C39.0874 25.795 38.9271 25.547 38.7122 25.3471C38.4965 25.1473 38.1999 25.0477 37.8214 25.0469C37.4429 25.0469 37.114 25.0999 36.8355 25.2067C36.557 25.3134 36.333 25.4386 36.1645 25.5815C35.9959 25.7244 35.8851 25.8672 35.8322 26.0101C35.7793 26.153 35.7901 26.2654 35.8636 26.3472C35.9058 26.3986 35.9769 26.4371 36.0769 26.4628C36.1768 26.4885 36.2901 26.5118 36.4157 26.5318C36.5421 26.5527 36.676 26.5736 36.8181 26.5936C36.9603 26.6145 37.0941 26.6506 37.2206 26.7012C37.5677 26.8344 37.8429 27.0471 38.0478 27.3385C38.2527 27.6299 38.3965 27.9549 38.48 28.3121C38.5635 28.6701 38.5949 29.0377 38.5734 29.4157C38.5519 29.7938 38.4775 30.1261 38.3511 30.4118C38.1081 31.0042 37.7503 31.4938 37.2759 31.8814C36.8024 32.2691 36.2868 32.4521 35.7289 32.4313C35.2034 32.4096 34.7769 32.2691 34.4522 32.0083C34.1266 31.7474 33.9034 31.4247 33.7836 31.0419C33.663 30.6582 33.6506 30.2449 33.7456 29.8002C33.8406 29.3563 34.0439 28.9422 34.3546 28.5601C34.6654 28.1773 35.0918 27.8538 35.6339 27.5889C36.176 27.324 36.8355 27.1772 37.6139 27.1475C37.6346 27.1378 37.6718 27.1322 37.7247 27.1322C37.5668 26.999 37.3834 26.8914 37.1727 26.8095C36.9834 26.7381 36.7785 26.6916 36.5578 26.6707C36.3372 26.6498 36.1289 26.645 35.9347 26.6546C35.7397 26.6643 35.5661 26.6795 35.4141 26.6996C35.2612 26.7197 35.1637 26.7349 35.1224 26.7453C35.091 26.592 35.1356 26.4106 35.2571 26.2011C35.3777 25.9917 35.5571 25.7934 35.7942 25.604C36.0314 25.4154 36.3206 25.2572 36.6628 25.1304C37.0049 25.0036 37.3908 24.9394 37.8222 24.9402C38.3271 24.9402 38.7527 25.018 39.1006 25.1722C39.4485 25.3263 39.7287 25.5358 39.9419 25.8014C40.1551 26.0679 40.3063 26.3874 40.3964 26.7598C40.4865 27.133 40.5311 27.5335 40.5311 27.9629L40.5261 31.0587C40.5261 31.314 40.5385 31.5187 40.565 31.672C40.5906 31.8253 40.6253 31.9457 40.6675 32.0323C40.7088 32.119 40.7509 32.176 40.7931 32.2009C40.8352 32.2266 40.8666 32.2394 40.8881 32.2394V32.3775L40.8865 32.3767ZM37.8338 27.2534C37.4131 27.2534 37.0156 27.304 36.6421 27.4051C36.2686 27.507 35.9422 27.6644 35.6637 27.8787C35.3843 28.093 35.1629 28.3635 35.0001 28.6901C34.8364 29.0168 34.7546 29.3997 34.7538 29.8395C34.7538 30.0538 34.7769 30.2689 34.824 30.4832C34.8711 30.6984 34.9497 30.8974 35.0596 31.0812C35.1695 31.265 35.3091 31.4239 35.4769 31.5572C35.6446 31.6904 35.8496 31.7771 36.0917 31.818C36.3438 31.8694 36.581 31.8598 36.8016 31.7883C37.0222 31.7169 37.228 31.6126 37.4173 31.4753C37.6065 31.3373 37.7726 31.1719 37.9147 30.9777C38.0569 30.7842 38.1701 30.5852 38.2544 30.3805C38.3494 30.1357 38.4155 29.8724 38.4527 29.5915C38.4899 29.3106 38.4932 29.0297 38.4618 28.7487C38.4304 28.4678 38.3627 28.1997 38.2577 27.9437C38.1528 27.6884 38.0114 27.4581 37.8329 27.2534H37.8338Z" fill="#67141C"/>
<path d="M41.6698 25.5432C42.3937 25.2775 43.168 25.7984 43.1664 26.5497L43.1598 31.0621C43.1598 31.3174 43.1722 31.522 43.1986 31.6753C43.2242 31.8287 43.2589 31.949 43.3011 32.0357C43.3424 32.1232 43.3845 32.1794 43.4267 32.2043C43.4688 32.23 43.5002 32.2428 43.5217 32.2428V32.3809L41.6756 32.3785V32.2404C41.7078 32.2404 41.7442 32.2276 41.7863 32.2019C41.8284 32.177 41.8673 32.1208 41.9045 32.0333C41.9417 31.9466 41.9755 31.8262 42.0078 31.6737C42.0392 31.5204 42.0557 31.3158 42.0557 31.0605L42.0623 26.3249C42.021 26.0488 41.9631 25.8706 41.8896 25.788C41.816 25.7061 41.7582 25.6652 41.7161 25.6652L41.6689 25.5424L41.6698 25.5432Z" fill="#67141C"/>
<path d="M49.7593 27.7606C49.7593 27.5463 49.699 27.3135 49.5792 27.0631C49.4585 26.8127 49.2932 26.5671 49.0833 26.3271C48.8734 26.0871 48.6346 25.872 48.3669 25.6825C48.0991 25.4931 47.8206 25.3551 47.5314 25.2676C47.2421 25.1809 46.9529 25.16 46.6637 25.205C46.3744 25.2507 46.1141 25.3904 45.8827 25.6256C45.6612 25.8399 45.5555 26.0927 45.5662 26.3841C45.5761 26.6754 45.7017 26.9387 45.9439 27.1739C46.1224 27.348 46.3876 27.5222 46.7397 27.6964C47.0917 27.8705 47.557 28.0295 48.1355 28.1731C48.5668 28.2863 48.9288 28.4196 49.2238 28.5729C49.518 28.727 49.7593 28.8907 49.9486 29.0641C50.2535 29.3611 50.4312 29.6933 50.4833 30.061C50.5353 30.4286 50.456 30.797 50.2452 31.1638C50.1395 31.3372 50.0163 31.4985 49.8734 31.6462C49.7312 31.7947 49.5759 31.9143 49.4073 32.0058C49.2387 32.1181 49.0519 32.212 48.847 32.2883C48.642 32.3645 48.4288 32.4255 48.2082 32.4713C47.9875 32.517 47.7661 32.5475 47.5454 32.5628C47.3248 32.578 47.114 32.5797 46.9141 32.5692C46.5356 32.5379 46.1389 32.4585 45.7232 32.33C45.3075 32.2016 44.8745 32.005 44.4225 31.7385L44.2969 31.6614L44.6778 29.9606L44.8043 29.9911C44.7828 30.0834 44.8043 30.2006 44.8671 30.3435C44.9299 30.4864 45.0084 30.6348 45.1034 30.7882C45.1976 30.9415 45.2976 31.0819 45.4026 31.2103C45.5075 31.3388 45.5968 31.4327 45.6703 31.4945C45.8802 31.6992 46.1116 31.8605 46.3637 31.9785C46.6157 32.0965 46.8785 32.1807 47.1521 32.2321C47.4149 32.2843 47.6752 32.3043 47.933 32.2947C48.1908 32.2851 48.4354 32.2498 48.6668 32.1888C48.7933 32.1583 48.909 32.1205 49.0139 32.074C49.1189 32.0282 49.2296 31.9745 49.3453 31.9135C49.4503 31.842 49.5453 31.7658 49.6296 31.6839C49.7031 31.602 49.7692 31.5153 49.8271 31.4238C49.8849 31.3323 49.9246 31.2352 49.9461 31.1325C49.9676 30.9696 49.9568 30.8211 49.9155 30.6878C49.842 30.4936 49.7188 30.3274 49.5453 30.1894C49.3717 30.0513 49.1693 29.9333 48.9387 29.8362C48.7073 29.7391 48.4578 29.654 48.19 29.5826C47.9214 29.5111 47.6562 29.4341 47.3934 29.3514C46.8884 29.2077 46.4447 29.0031 46.0612 28.7366C45.6778 28.4701 45.3993 28.1659 45.2266 27.8232C45.0539 27.4805 45.001 27.1153 45.0704 26.7276C45.139 26.3399 45.3794 25.9466 45.7902 25.5485C46.0637 25.2732 46.424 25.1022 46.8719 25.0364C47.319 24.9706 47.771 24.9714 48.2288 25.038C48.6858 25.1054 49.1015 25.2282 49.4742 25.408C49.8469 25.587 50.1023 25.7901 50.2386 26.0148L49.842 27.7614H49.7635L49.7593 27.7606Z" fill="#67141C"/>
<path d="M21.8355 45.0972C21.7718 45.5387 21.6809 45.9424 21.5628 46.3092C21.4446 46.676 21.3082 47.0003 21.1537 47.2828C20.8628 47.7949 20.5314 48.1705 20.1587 48.4089L19.9951 48.5012C19.7587 48.6336 19.5092 48.7171 19.2456 48.7524C18.9819 48.7878 18.7183 48.7829 18.4547 48.7396C17.982 48.6601 17.5936 48.51 17.2895 48.2893C16.9854 48.0686 16.7531 47.8037 16.5945 47.4947C16.435 47.1857 16.3424 46.8454 16.3152 46.4753C16.2879 46.1045 16.3193 45.7313 16.4102 45.3565C16.5011 44.9816 16.6416 44.6172 16.8325 44.2641C17.0234 43.9109 17.2548 43.5979 17.5275 43.3242C17.8638 42.9887 18.2588 42.7174 18.7134 42.5095C19.1679 42.3024 19.6678 42.2029 20.2124 42.2117C20.4488 42.2029 20.7008 42.2229 20.9686 42.2711C21.2363 42.3201 21.5247 42.4059 21.8338 42.5295V40.2388C21.7975 40.0092 21.7495 39.8592 21.6908 39.7885C21.6313 39.7179 21.5842 39.6826 21.5479 39.6826L21.5074 39.563L22.7883 39.0999V47.522C22.7883 47.7427 22.7999 47.9193 22.8222 48.0517C22.8445 48.1842 22.8742 57.5574 22.9106 57.6321C22.947 57.7067 22.9833 57.7557 23.0197 57.7774C23.056 57.7998 23.0833 57.8103 23.1015 57.8103V57.9299C22.4015 57.9299 21.8338 57.3784 21.8338 56.6986V45.098L21.8355 45.0972ZM21.8355 42.6339C21.2628 42.4132 20.7182 42.3032 20.2 42.3032C19.7182 42.3209 19.3026 42.4445 18.953 42.674C18.6034 42.9036 18.3101 43.2174 18.0737 43.6139C17.9101 43.9053 17.7804 44.256 17.6853 44.667C17.5895 45.0771 17.5424 45.4945 17.5424 45.9183C17.5424 46.3421 17.601 46.7482 17.7192 47.1367C17.8374 47.5252 18.0233 47.843 18.2778 48.0903C18.5142 48.3198 18.7729 48.4675 19.0547 48.5341C19.3365 48.5999 19.6315 48.5582 19.9405 48.4081C20.1224 48.311 20.2835 48.1938 20.4248 48.0573C20.5653 47.9209 20.695 47.7636 20.8132 47.587C21.0496 47.2603 21.238 46.8943 21.3793 46.4882C21.5198 46.082 21.6264 45.6719 21.6999 45.2569C21.7363 45.0803 21.7636 44.8909 21.7818 44.687C21.809 44.4133 21.8222 44.122 21.8222 43.813H21.8363V42.6347L21.8355 42.6339Z" fill="#67141C"/>
<path d="M29.5783 49.2996H28.3106V45.2558C28.247 45.6532 28.1693 46.0151 28.0792 46.3418C27.9883 46.6685 27.8834 46.9599 27.766 47.2159C27.6751 47.4013 27.5702 47.5827 27.4528 47.7585C27.3347 47.9351 27.1958 48.0964 27.0372 48.2417C26.8785 48.387 26.705 48.5041 26.519 48.5924C26.3322 48.6807 26.1257 48.7249 25.8992 48.7249C25.5265 48.7249 25.2241 48.6502 24.9927 48.5001C24.7613 48.35 24.5795 48.1558 24.4472 47.9174C24.3159 47.679 24.2241 47.4101 24.1745 47.1091C24.1241 46.809 24.0993 46.5088 24.0993 46.2086V43.4274C24.0993 43.2067 24.0853 43.0301 24.0588 42.8977C24.0316 42.7652 24.0018 42.6641 23.9704 42.5935C23.9382 42.5228 23.9043 42.4739 23.8679 42.4474C23.8316 42.4209 23.8043 42.4073 23.7861 42.4073V42.2877H25.0538V46.2078C25.0538 46.3667 25.0629 46.5585 25.0811 46.7841C25.0993 47.0088 25.1381 47.2295 25.1968 47.4463C25.2555 47.663 25.3422 47.8588 25.4554 48.0354C25.5687 48.212 25.7215 48.3316 25.9124 48.3926C26.1033 48.4544 26.2893 48.4544 26.4711 48.3926C26.6529 48.3308 26.819 48.2336 26.9686 48.1012C27.1181 47.9688 27.2529 47.8187 27.371 47.6509C27.4892 47.4832 27.5842 47.3243 27.657 47.1742C27.8569 46.7504 28.0156 46.2319 28.1338 45.6178C28.252 45.0046 28.3106 44.2734 28.3106 43.4266C28.3106 43.2059 28.2966 43.0293 28.2701 42.8969C28.2437 42.7644 28.2131 42.6633 28.1817 42.5927C28.1495 42.522 28.1156 42.4731 28.0792 42.4466C28.0429 42.4201 28.0156 42.4065 27.9974 42.4065V42.2869H29.2651V47.5313C29.2651 47.7521 29.2767 47.9286 29.299 48.0611C29.3213 48.1935 29.3511 48.9247 29.3874 49.0002C29.4238 49.0756 29.4601 49.1238 29.4965 49.1455C29.5329 49.1679 29.5601 49.1784 29.5783 49.1784V49.298V49.2996Z" fill="#67141C"/>
<path d="M42.3848 47.2643C42.5873 47.6086 42.7798 47.928 42.9633 48.2226C43.1467 48.5172 43.3145 48.7756 43.4657 48.9964C43.6178 49.2179 43.7467 49.3897 43.8541 49.5125C43.9615 49.6353 44.0533 49.6971 44.1293 49.6971V49.8632H41.9104V49.6971C41.9865 49.6971 41.9542 49.5068 41.8146 49.1256C41.6749 48.7451 41.4278 48.2595 41.0725 47.6696L38.4636 43.2992C38.2875 43.0046 37.9636 42.8232 37.6132 42.8232H37.0124C36.4695 42.8232 36.029 43.251 36.029 43.7784V58.6377C36.029 58.9323 36.0447 59.1755 36.0761 59.3657C36.1075 59.5567 36.1488 59.7004 36.1992 59.7991C36.2496 59.8979 36.3001 59.9653 36.3513 60.0022C36.4017 60.0391 36.4397 60.0576 36.4653 60.0576V60.2237H34.2646V60.0576C34.2903 60.0576 34.3275 60.0391 34.3787 60.0022C34.4291 59.9653 34.4762 59.8979 34.5208 59.7991C34.5646 59.7012 34.6059 59.5567 34.644 59.3657C34.682 59.1755 34.701 58.9323 34.701 58.6377V38.5114C34.701 38.2048 34.682 37.9584 34.644 37.7746C34.6059 37.59 34.5646 37.4495 34.5208 37.3508C34.4762 37.2529 34.4291 37.1847 34.3787 37.1477C34.3283 37.1108 34.2903 37.0924 34.2646 37.0924V36.9262H34.4357C35.0051 36.9142 35.5927 36.8772 36.2001 36.8154C36.8066 36.7544 37.3884 36.7231 37.9454 36.7231C38.9065 36.7231 39.7155 36.8002 40.3733 36.9535C41.0303 37.1076 41.5617 37.3195 41.9666 37.5892C42.3716 37.8597 42.6616 38.1823 42.8393 38.5572C43.0162 38.932 43.1046 39.3406 43.1046 39.7828C43.1046 40.1512 43.0442 40.4956 42.9244 40.815C42.8038 41.1345 42.6079 41.4234 42.336 41.6811C42.0641 41.9387 41.7104 42.157 41.2741 42.3352L40.3576 42.7077C40.0668 42.8256 39.9486 43.166 40.1064 43.4308L42.384 47.2643H42.3848ZM36.0306 36.9808V42.6755H37.9338C38.352 42.6755 38.7867 42.6322 39.2371 42.5463C39.6874 42.4604 40.0998 42.3063 40.4742 42.0856C40.8485 41.8641 41.1592 41.5663 41.4072 41.1915C41.6543 40.8166 41.7782 40.3471 41.7782 39.7812C41.7782 39.2153 41.6543 38.7466 41.4072 38.3718C41.1601 37.9969 40.8485 37.6992 40.4742 37.4776C40.0998 37.2561 39.6874 37.0996 39.2371 37.0081C38.7867 36.9158 38.352 36.87 37.9338 36.87C37.6421 36.87 37.3339 36.8821 37.0108 36.9069C36.6868 36.9318 36.3604 36.9559 36.0306 36.9808Z" fill="#67141C"/>
<path d="M53.5772 49.8625H51.8128V44.5555C51.8128 44.224 51.7971 43.8556 51.7657 43.4494C51.7343 43.0441 51.655 42.6636 51.5286 42.3065C51.4021 41.9501 51.2088 41.6523 50.9501 41.4131C50.6906 41.1731 50.3336 41.0535 49.8783 41.0535C49.4229 41.0535 49.0279 41.1178 48.6924 41.247C48.3569 41.3762 48.0883 41.5263 47.8867 41.6981C47.6842 41.8706 47.5511 42.0424 47.4883 42.2142C47.4247 42.3859 47.4379 42.5216 47.5263 42.6195C47.5768 42.6813 47.6619 42.7271 47.7825 42.7576C47.9024 42.7881 48.0387 42.8161 48.1899 42.8402C48.342 42.8651 48.5031 42.8892 48.6734 42.9141C48.8444 42.9389 49.0056 42.9815 49.1568 43.0433C49.5741 43.203 49.9064 43.4575 50.1526 43.8082C50.3989 44.1582 50.5733 44.5483 50.6741 44.9785C50.7749 45.4087 50.8129 45.8509 50.7881 46.3052C50.7625 46.7595 50.6741 47.1592 50.5228 47.5028C50.232 48.2155 49.8022 48.8055 49.2328 49.2718C48.6635 49.7389 48.0445 49.9597 47.3743 49.9356C46.7421 49.9107 46.2297 49.7422 45.838 49.4291C45.4463 49.1161 45.1769 48.7292 45.0315 48.2685C44.886 47.8078 44.8703 47.3101 44.9844 46.7756C45.0984 46.241 45.3414 45.7434 45.7149 45.2827C46.0876 44.8219 46.6 44.4319 47.2512 44.1124C47.9024 43.793 48.6957 43.6148 49.632 43.5779C49.6568 43.5658 49.7014 43.5594 49.7642 43.5594C49.575 43.3997 49.3535 43.2712 49.1006 43.1725C48.8725 43.0866 48.6263 43.0313 48.361 43.0064C48.0957 42.9815 47.8453 42.9759 47.6123 42.9879C47.3776 43 47.1693 43.0184 46.9859 43.0433C46.8024 43.0682 46.6851 43.0866 46.6347 43.0987C46.5967 42.9149 46.6504 42.6966 46.7958 42.4445C46.9413 42.1925 47.1561 41.9533 47.4404 41.7262C47.7247 41.499 48.0726 41.3088 48.4833 41.1547C48.894 41.0014 49.3585 40.9243 49.8774 40.9243C50.4848 40.9243 50.9964 41.0166 51.4153 41.2004C51.8335 41.385 52.1707 41.6371 52.4277 41.9557C52.6847 42.2752 52.8673 42.6588 52.9764 43.1075C53.0855 43.5562 53.14 44.0378 53.14 44.5539V48.2765C53.14 48.5839 53.1557 48.8295 53.188 49.0134C53.2194 49.198 53.2607 49.3424 53.3111 49.4468C53.3615 49.5511 53.4119 49.6185 53.4632 49.6499C53.5136 49.6804 53.5516 49.6956 53.5772 49.6956V49.8617V49.8625ZM49.8973 43.7079C49.3915 43.7079 48.9139 43.7697 48.4651 43.8917C48.0164 44.0145 47.6239 44.2047 47.2892 44.4632C46.9537 44.7208 46.6884 45.0467 46.4925 45.44C46.2967 45.8333 46.1983 46.294 46.1983 46.8221C46.1983 47.0798 46.2264 47.3382 46.2834 47.5959C46.3405 47.8535 46.4355 48.0935 46.5677 48.3143C46.7008 48.5358 46.8677 48.726 47.0702 48.8857C47.2718 49.0455 47.5189 49.1498 47.8098 49.1988C48.1131 49.2606 48.3982 49.2477 48.6635 49.1618C48.9287 49.076 49.1758 48.9499 49.4031 48.7838C49.6312 48.6176 49.8295 48.4186 50.0006 48.185C50.1716 47.9515 50.3072 47.7123 50.4088 47.4667C50.5228 47.1721 50.6014 46.8558 50.646 46.5171C50.6898 46.1792 50.6939 45.8413 50.6559 45.5034C50.6179 45.1655 50.5352 44.8428 50.4088 44.5362C50.2824 44.2296 50.1113 43.9527 49.8964 43.7071L49.8973 43.7079Z" fill="#67141C"/>
<path d="M55.72 49.8119C55.72 50.6057 55.6159 51.3048 55.4068 51.91C55.1986 52.5144 54.9242 53.0216 54.5854 53.431C54.2458 53.8403 53.8648 54.1486 53.4417 54.3564C53.0186 54.5635 52.5888 54.6679 52.1533 54.6679V54.5394C52.4393 54.5394 52.6913 54.472 52.9095 54.338C53.1276 54.2031 53.3169 54.0265 53.4789 53.8066C53.6408 53.5867 53.7747 53.3331 53.8805 53.0465C53.9863 52.7592 54.0763 52.4694 54.1515 52.1765C54.3135 51.4926 54.4003 50.7044 54.4127 49.8127V42.6748C54.4127 42.609 54.4077 42.5415 54.397 42.4765C54.349 42.2028 54.2895 42.0222 54.2168 41.9339C54.1358 41.836 54.0706 41.787 54.021 41.787L53.9648 41.6402C54.8102 41.3223 55.7209 41.9283 55.7209 42.8088V49.8119H55.72ZM54.8953 39.4875C54.6449 39.4875 54.4358 39.4048 54.2664 39.2387C54.0978 39.0725 54.0127 38.867 54.0127 38.6214C54.0127 38.3758 54.097 38.1703 54.2664 38.0042C54.435 37.838 54.6449 37.7554 54.8953 37.7554C55.1457 37.7554 55.3548 37.838 55.5242 38.0042C55.6928 38.1703 55.7779 38.3758 55.7779 38.6214C55.7779 38.867 55.6936 39.0733 55.5242 39.2387C55.3556 39.4048 55.1457 39.4875 54.8953 39.4875Z" fill="#67141C"/>
<path d="M65.4317 49.8625H63.6673V44.5555C63.6673 44.224 63.6516 43.8556 63.6202 43.4494C63.5888 43.0441 63.5095 42.6636 63.3831 42.3065C63.2566 41.9501 63.0632 41.6523 62.8046 41.4131C62.5451 41.1731 62.1881 41.0535 61.7327 41.0535C61.2774 41.0535 60.8824 41.1178 60.5469 41.247C60.2114 41.3762 59.9428 41.5263 59.7411 41.6981C59.5387 41.8706 59.4056 42.0424 59.3428 42.2142C59.2792 42.3859 59.2924 42.5216 59.3808 42.6195C59.4312 42.6813 59.5164 42.7271 59.637 42.7576C59.7568 42.7881 59.8932 42.8161 60.0444 42.8402C60.1965 42.8651 60.3576 42.8892 60.5279 42.9141C60.6989 42.9389 60.8601 42.9815 61.0113 43.0433C61.4286 43.203 61.7609 43.4575 62.0071 43.8082C62.2534 44.1582 62.4277 44.5483 62.5286 44.9785C62.6294 45.4087 62.6674 45.8509 62.6426 46.3052C62.617 46.7595 62.5286 47.1592 62.3773 47.5028C62.0864 48.2155 61.6567 48.8055 61.0873 49.2718C60.518 49.7389 59.899 49.9597 59.2288 49.9356C58.5966 49.9107 58.0842 49.7422 57.6925 49.4291C57.3008 49.1161 57.0314 48.7292 56.886 48.2685C56.7405 47.8078 56.7248 47.3101 56.8389 46.7756C56.9529 46.241 57.1959 45.7434 57.5694 45.2827C57.9421 44.8219 58.4545 44.4319 59.1057 44.1124C59.7569 43.793 60.5502 43.6148 61.4865 43.5779C61.5113 43.5658 61.5559 43.5594 61.6187 43.5594C61.4295 43.3997 61.208 43.2712 60.9551 43.1725C60.727 43.0866 60.4808 43.0313 60.2155 43.0064C59.9502 42.9815 59.6998 42.9759 59.4668 42.9879C59.2321 43 59.0238 43.0184 58.8404 43.0433C58.6569 43.0682 58.5396 43.0866 58.4892 43.0987C58.4511 42.9149 58.5049 42.6966 58.6503 42.4445C58.7958 42.1925 59.0106 41.9533 59.2949 41.7262C59.5792 41.499 59.9271 41.3088 60.3378 41.1547C60.7485 41.0014 61.2129 40.9243 61.7319 40.9243C62.3393 40.9243 62.8509 41.0166 63.2698 41.2004C63.688 41.385 64.0252 41.6371 64.2822 41.9557C64.5392 42.2752 64.7218 42.6588 64.8309 43.1075C64.94 43.5562 64.9945 44.0378 64.9945 44.5539V48.2765C64.9945 48.5839 65.0102 48.8295 65.0425 49.0134C65.0739 49.198 65.1152 49.3424 65.1656 49.4468C65.216 49.5511 65.2664 49.6185 65.3176 49.6499C65.3681 49.6804 65.4061 49.6956 65.4317 49.6956V49.8617V49.8625ZM61.7518 43.7079C61.246 43.7079 60.7684 43.7697 60.3196 43.8917C59.8709 44.0145 59.4784 44.2047 59.1437 44.4632C58.8081 44.7208 58.5429 45.0467 58.347 45.44C58.1512 45.8333 58.0528 46.294 58.0528 46.8221C58.0528 47.0798 58.0809 47.3382 58.1379 47.5959C58.195 47.8535 58.29 48.0935 58.4222 48.3143C58.5553 48.5358 58.7222 48.726 58.9247 48.8857C59.1263 49.0455 59.3734 49.1498 59.6643 49.1988C59.9676 49.2606 60.2527 49.2477 60.518 49.1618C60.7832 49.076 61.0303 48.9499 61.2576 48.7838C61.4857 48.6176 61.684 48.4186 61.8551 48.185C62.0261 47.9515 62.1617 47.7123 62.2633 47.4667C62.3773 47.1721 62.4558 46.8558 62.5005 46.5171C62.5443 46.1792 62.5484 45.8413 62.5104 45.5034C62.4724 45.1655 62.3897 44.8428 62.2633 44.5362C62.1369 44.2296 61.9658 43.9527 61.7509 43.7071L61.7518 43.7079Z" fill="#67141C"/>
<path d="M52.9998 19.9142H16.5253C16.1452 19.9142 15.8369 19.6148 15.8369 19.2456H52.3114C52.6915 19.2456 52.9998 19.545 52.9998 19.9142Z" fill="#67141C"/>
<path d="M15.5283 54.5846H51.7747C52.4549 54.5846 53.1193 54.3831 53.6787 54.0083L15.5283 54.5846Z" fill="#67141C"/>
<path d="M15.5282 54.2553C24.4127 54.2938 40.296 54.3636 49.0153 54.4022L51.4068 54.4126C52.1341 54.4519 52.8431 54.3235 53.467 53.9559L53.5323 53.927L53.5662 53.9142L53.5836 53.9077L53.5926 53.9053C53.6298 53.9519 53.5232 53.797 53.6778 54.0089C53.8265 54.224 53.715 54.0731 53.7472 54.1228C53.6075 54.2721 53.4125 54.358 53.2282 54.4439C52.6671 54.7072 52.0192 54.7762 51.4068 54.7577L49.0153 54.7682C45.9667 54.7818 37.8127 54.8171 34.6633 54.8308L16.2058 54.9118C15.8315 54.9135 15.5273 54.6197 15.5273 54.2561L15.5282 54.2553Z" fill="#67141C"/>
<path d="M47.1848 16.4492L47.3377 16.6443C47.5162 16.8722 47.7261 17.0753 47.9608 17.2495L48.1616 17.3979L48.0228 17.5007C47.7476 17.7046 47.5013 17.9437 47.2906 18.2118L47.1848 18.3467L47.079 18.2118C46.8691 17.9445 46.6229 17.7054 46.3468 17.5007L46.208 17.3979L46.4121 17.2462C46.6443 17.0745 46.8509 16.873 47.0278 16.6475L47.184 16.4492H47.1848Z" fill="#67141C"/>
<path d="M49.6604 16.4492L49.8133 16.6443C49.9918 16.8722 50.2017 17.0753 50.4364 17.2495L50.6372 17.3979L50.4984 17.5007C50.2232 17.7046 49.9769 17.9437 49.7662 18.2118L49.6604 18.3467L49.5546 18.2118C49.3447 17.9445 49.0984 17.7054 48.8224 17.5007L48.6836 17.3979L48.8877 17.2462C49.1199 17.0745 49.3265 16.873 49.5034 16.6475L49.6596 16.4492H49.6604Z" fill="#67141C"/>
<path d="M26.2453 56.9241L26.3982 57.1191C26.5767 57.3471 26.7866 57.5501 27.0213 57.7243L27.2221 57.8728L27.0833 57.9755C26.8081 58.1794 26.5619 58.4186 26.3511 58.6867L26.2453 58.8215L26.1396 58.6867C25.9297 58.4194 25.6834 58.1802 25.4074 57.9755L25.2686 57.8728L25.4727 57.7211C25.7049 57.5493 25.9115 57.3479 26.0883 57.1223L26.2445 56.9241H26.2453Z" fill="#67141C"/>
<path d="M28.7219 56.9241L28.8748 57.1191C29.0533 57.3471 29.2632 57.5501 29.4979 57.7243L29.6987 57.8728L29.5599 57.9755C29.2847 58.1794 29.0384 58.4186 28.8277 58.6867L28.7219 58.8215L28.6161 58.6867C28.4062 58.4194 28.16 58.1802 27.884 57.9755L27.7451 57.8728L27.9492 57.7211C28.1815 57.5493 28.388 57.3479 28.5649 57.1223L28.7211 56.9241H28.7219Z" fill="#67141C"/>
<path d="M31.4231 56.9241L31.576 57.1191C31.7545 57.3471 31.9644 57.5501 32.1991 57.7243L32.3999 57.8728L32.261 57.9755C31.9859 58.1794 31.7396 58.4186 31.5289 58.6867L31.4231 58.8215L31.3173 58.6867C31.1074 58.4194 30.8611 58.1802 30.5851 57.9755L30.4463 57.8728L30.6504 57.7211C30.8826 57.5493 31.0892 57.3479 31.2661 57.1223L31.4223 56.9241H31.4231Z" fill="#67141C"/>
<path d="M42.4734 23.2719C42.223 23.2719 42.0139 23.1892 41.8445 23.0231C41.6759 22.8569 41.5908 22.6515 41.5908 22.4058C41.5908 22.1602 41.6751 21.9548 41.8445 21.7886C42.0131 21.6225 42.223 21.5398 42.4734 21.5398C42.7238 21.5398 42.9329 21.6225 43.1023 21.7886C43.2709 21.9548 43.356 22.1602 43.356 22.4058C43.356 22.6515 43.2717 22.8577 43.1023 23.0231C42.9337 23.1892 42.7238 23.2719 42.4734 23.2719Z" fill="#67141C"/>
<circle cx="38" cy="38" r="37.5" stroke="#67141C"/>
</svg>
