<svg width="284" height="252" viewBox="0 0 284 252" fill="none" xmlns="http://www.w3.org/2000/svg">
<path d="M17.5631 93.1454L7.06152 93.1317V92.345C7.1838 92.345 7.36252 92.2581 7.60237 92.0843C7.84222 91.9105 8.06795 91.5904 8.27488 91.1238C8.48651 90.6573 8.67933 89.9758 8.86274 89.0702C9.04616 88.1646 9.13552 87.0166 9.13552 85.6217L9.20137 27.1332C9.20137 25.6788 9.11672 24.5125 8.93801 23.6389C8.7593 22.7653 8.56645 22.0976 8.35482 21.6311C8.14319 21.1645 7.92216 20.8444 7.68231 20.6706C7.44246 20.4968 7.26377 20.4053 7.1462 20.4053V19.6186H7.95509C10.6499 19.5637 13.4481 19.3945 16.3498 19.1064C19.2515 18.8182 22.0215 18.6764 24.6551 18.681C29.2028 18.6856 33.031 19.0561 36.1443 19.7879C39.2529 20.5196 41.7643 21.5259 43.6784 22.8111C45.5925 24.0963 46.9657 25.6239 47.8028 27.4031C48.6399 29.1822 49.0538 43.3195 49.0491 45.4143C49.0491 47.509 48.6211 49.4437 47.7793 51.2183C46.9375 52.9929 45.5548 54.5068 43.6313 55.7554C41.7078 57.004 39.1871 57.992 36.0644 58.7146C32.9416 59.4372 29.0994 59.7986 24.5423 59.7894L18.6213 59.7803C16.8718 59.7803 15.4468 61.157 15.4468 62.8584L15.4139 85.6262C15.4139 87.0212 15.4985 88.1738 15.6773 89.0748C15.856 89.9758 16.0488 90.6619 16.2557 91.1284C16.4627 91.5949 16.6884 91.9151 16.9282 92.0889C17.1681 92.2627 17.375 92.3496 17.5584 92.3542V93.1408L17.5631 93.1454ZM24.5563 59.0073V59.0942C26.4798 59.0942 28.5021 58.8976 30.6372 58.4905C32.7723 58.088 34.7382 57.3608 36.5394 56.3134C38.3406 55.2706 39.8314 53.8573 41.0071 52.0827C42.1782 50.3081 42.7707 48.0853 42.7707 45.4051C42.7707 42.7295 42.1923 28.2949 41.0259 26.5203C39.8549 24.7412 38.3735 23.3279 36.5723 22.2759C34.7711 21.2286 32.81 20.4831 30.6748 20.0394C28.5444 19.6003 26.5175 19.3762 24.5987 19.3762C23.1549 19.3762 21.6735 19.4311 20.1403 19.5455L18.4285 19.6735C16.7778 19.797 15.4985 21.1371 15.4985 22.7516L15.4656 55.9064C15.4656 57.6078 16.8812 58.989 18.6307 58.9936L24.5563 59.0028V59.0073Z" fill="#E2B161"/>
<path d="M81.9716 89.2173C81.8305 88.3437 81.7553 87.1866 81.7553 85.7275L81.7788 68.0822C81.7929 65.6399 81.5342 63.3576 81.0216 61.2262C80.509 59.1086 79.639 57.2883 78.435 55.7698C77.217 54.2513 75.618 53.053 73.6427 52.1795C71.6581 51.3059 69.2361 50.8577 66.3674 50.8577C63.9077 50.8577 61.7162 51.219 59.7692 51.9416C57.8222 52.6643 56.1714 53.5607 54.8264 54.6447C53.4814 55.7149 52.4562 56.8492 51.7648 58.0475C51.4497 58.5826 51.2287 59.0903 51.097 59.566C50.8854 60.3252 51.572 61.0341 52.3715 60.9198C52.4656 60.9061 52.5596 60.8924 52.6631 60.8786C53.5331 60.7643 54.5207 60.6774 55.6212 60.6271C56.7358 60.563 57.9162 60.6042 59.1719 60.714C60.4276 60.8375 61.5939 61.0982 62.6709 61.5098C63.8748 61.9718 64.9236 62.5801 65.8077 63.3439C65.5114 63.3439 65.3092 63.3667 65.1822 63.4308C60.7615 63.6046 56.9945 64.4415 53.9235 65.9463C50.8383 67.4556 48.4022 69.2988 46.6339 71.4805C44.8657 73.6621 43.7135 76.0176 43.1773 78.5468C42.6271 81.0898 42.7023 83.4453 43.3936 85.6269C44.0709 87.8086 45.3407 89.6518 47.1983 91.1337C49.0418 92.6155 51.4638 93.4251 54.4643 93.5394C57.6435 93.6629 60.5734 92.6292 63.2634 90.411C65.9676 88.2065 68.004 85.412 69.3866 82.0366C70.1062 80.4038 70.5247 78.524 70.6423 76.3652C70.7693 74.211 70.5906 72.1162 70.1156 70.0718C69.6406 68.041 68.8223 66.1841 67.656 64.5239C66.4896 62.8682 64.9283 61.6562 62.953 60.8969C62.2241 60.5996 61.4669 60.3984 60.658 60.2749C59.8491 60.1606 59.0825 60.0371 58.363 59.9273C57.6435 59.8175 57.0038 59.6803 56.4395 59.5294C55.861 59.3922 55.466 59.1681 55.2215 58.8799C54.7982 58.4043 54.7465 57.7731 55.0428 56.9498C55.3484 56.1403 55.9786 55.3307 56.938 54.5075C57.888 53.6979 59.1672 52.989 60.7568 52.3761C62.3464 51.7633 64.2134 51.466 66.3674 51.466C68.5213 51.466 70.2096 52.0377 71.4418 53.172C72.6598 54.32 73.5675 55.7287 74.1695 57.4209C74.7573 59.104 75.1289 60.9107 75.2841 62.8316C75.4251 64.7526 75.5004 66.4951 75.5004 68.0776L75.4628 89.3728C75.4628 90.3973 75.4252 91.4218 75.3593 92.4463C75.2182 94.7011 75.3499 94.6737 75.6791 96.1053C78.3833 107.233 89.1811 110.476 99.6216 108.093C101.376 107.754 103.106 107.32 104.795 106.835C106.079 106.497 107.292 105.966 108.614 105.779C109.295 105.683 109.719 105.006 109.517 104.365C109.319 103.743 108.609 103.405 107.993 103.67C106.812 104.178 105.514 104.32 104.259 104.516C99.5558 105.262 94.1239 105.34 89.8584 103.679C85.6681 102.047 83.5283 98.7306 83.058 94.6829C82.8793 93.5989 83.0439 92.2908 82.5595 91.2663M68.8505 67.9724C69.4525 69.4314 69.8381 70.9499 70.0168 72.5599C70.1955 74.1561 70.172 75.7615 69.9651 77.3577C69.7487 78.9676 69.3772 80.4586 68.8364 81.8582C68.3473 83.0153 67.7077 84.1633 66.9035 85.261C66.0852 86.3724 65.1493 87.3192 64.0723 88.1013C62.9813 88.8742 61.8196 89.4734 60.564 89.885C59.3083 90.2829 57.9632 90.347 56.5289 90.0451C55.1462 89.821 53.9799 89.3225 53.0205 88.5632C52.0705 87.804 51.2804 86.9076 50.6502 85.8465C50.0247 84.7991 49.5733 83.6648 49.3052 82.4436C49.0512 81.2225 48.9102 80.0013 48.9102 78.7801C48.9243 76.2737 49.3852 74.0921 50.321 72.226C51.2428 70.3691 52.4985 68.8231 54.1022 67.602C55.6776 66.3808 57.5353 65.4844 59.661 64.9081C61.6174 64.3684 63.6961 64.0848 65.8736 64.0391C66.231 64.0299 66.579 64.1854 66.8 64.4598C67.6559 65.5209 68.3426 66.6872 68.8646 67.9724H68.8505Z" fill="#E2B161"/>
<path d="M98.7121 93.2596L88.2998 93.2459V92.4592C88.4221 92.4592 88.6008 92.3861 88.8407 92.2397C89.0805 92.0979 89.3062 91.7778 89.5132 91.2792C89.7248 90.7853 89.9176 90.0992 90.101 89.2256C90.2797 88.3521 90.3738 87.1903 90.3738 85.7313L90.4444 5.35314C90.4444 5.01468 90.4208 4.67167 90.3597 4.33779C90.1339 3.10746 89.8518 2.28877 89.5085 1.87256C89.1181 1.40604 88.8077 1.17278 88.5679 1.17278L88.2998 0.386107C92.3913 -1.0912 96.7415 1.85426 96.7368 6.09865L96.6616 85.7359C96.6616 87.1903 96.7321 88.3566 96.8826 89.2302C97.0284 90.1038 97.2259 90.7898 97.4658 91.2838C97.7009 91.7778 97.9408 92.1025 98.1806 92.2443C98.4205 92.3906 98.5992 92.4638 98.7168 92.4638V93.2505L98.7121 93.2596Z" fill="#E2B161"/>
<path d="M144.318 93.3195L135.97 93.3103L136.007 68.1595C136.007 66.5862 135.937 64.839 135.791 62.9181C135.645 60.9971 135.274 59.1905 134.677 57.5028C134.079 55.8151 133.167 54.4018 131.944 53.263C130.717 52.1241 129.028 51.557 126.874 51.5524C124.721 51.5524 122.849 51.8543 121.264 52.4626C119.679 53.0709 118.405 53.7844 117.445 54.5985C116.486 55.4126 115.856 56.2268 115.555 57.0409C115.254 57.855 115.315 58.4953 115.733 58.9618C115.973 59.2545 116.378 59.4741 116.947 59.6204C117.516 59.7668 118.16 59.8994 118.875 60.0138C119.594 60.1327 120.356 60.2516 121.165 60.366C121.974 60.4849 122.736 60.6907 123.455 60.9788C125.431 61.7381 126.997 62.9501 128.163 64.6103C129.329 66.2706 130.148 68.1229 130.623 70.1582C131.098 72.1981 131.276 74.2929 131.154 76.4471C131.032 78.6013 130.609 80.4948 129.889 82.123C128.506 85.4984 126.47 88.2884 123.771 90.4975C121.076 92.7066 118.141 93.7494 114.967 93.6305C111.976 93.507 109.549 92.7066 107.701 91.2201C105.848 89.7337 104.578 87.895 103.896 85.7134C103.209 83.5272 103.139 81.1717 103.68 78.6379C104.221 76.1086 105.377 73.7486 107.146 71.5715C108.914 69.3899 111.341 67.5467 114.426 66.0373C117.511 64.528 121.264 63.691 125.694 63.5218C125.812 63.4669 126.023 63.4349 126.324 63.4349C125.426 62.6757 124.382 62.0628 123.183 61.5963C122.106 61.1892 120.939 60.9239 119.684 60.805C118.428 60.6861 117.243 60.6587 116.138 60.7135C115.028 60.7684 114.04 60.8553 113.175 60.9697C112.305 61.084 111.75 61.1709 111.515 61.2304C111.336 60.3568 111.59 59.3231 112.281 58.1294C112.968 56.9357 113.988 55.806 115.338 54.7266C116.688 53.6518 118.334 52.7507 120.281 52.0281C122.228 51.3055 124.424 50.9396 126.879 50.9441C129.753 50.9441 132.175 51.3878 134.155 52.2659C136.134 53.1441 137.729 54.3378 138.942 55.8517C140.155 57.3702 141.016 59.1905 141.529 61.3127C142.041 63.4395 142.295 65.7218 142.295 68.1687L142.267 85.8094C142.267 87.2639 142.338 88.4302 142.488 89.3037C142.634 90.1773 142.831 90.8634 143.071 91.3573C143.306 91.8513 143.546 92.176 143.786 92.3178C144.026 92.4642 144.205 92.5374 144.327 92.5374V93.324L144.318 93.3195ZM126.945 64.1255C124.551 64.1255 122.289 64.4137 120.163 64.99C118.038 65.5708 116.18 66.4673 114.595 67.6884C113.006 68.9096 111.745 70.451 110.819 72.3125C109.888 74.174 109.422 76.3556 109.417 78.862C109.417 80.0832 109.549 81.3089 109.817 82.5301C110.085 83.7558 110.532 84.8901 111.157 85.9375C111.783 86.9849 112.578 87.8905 113.532 88.6497C114.487 89.4089 115.653 89.9029 117.031 90.1362C118.466 90.4289 119.815 90.374 121.071 89.9669C122.327 89.5599 123.498 88.9653 124.575 88.1832C125.652 87.3965 126.597 86.4543 127.406 85.3475C128.215 84.2452 128.859 83.111 129.339 81.9447C129.88 80.5497 130.256 79.0495 130.467 77.4487C130.679 75.8479 130.698 74.2471 130.519 72.6463C130.34 71.0455 129.955 69.5179 129.358 68.0589C128.76 66.6045 127.956 65.2918 126.94 64.1255H126.945Z" fill="#E2B161"/>
<path d="M148.772 54.3793C152.892 52.8654 157.299 55.8338 157.289 60.1147L157.252 85.8281C157.252 87.2825 157.322 88.4488 157.473 89.3224C157.618 90.196 157.816 90.882 158.056 91.376C158.291 91.8745 158.531 92.1947 158.771 92.3365C159.011 92.4828 159.189 92.556 159.312 92.556V93.3427L148.805 93.3289V92.5423C148.989 92.5423 149.196 92.4691 149.435 92.3227C149.675 92.1809 149.896 91.8608 150.108 91.3623C150.32 90.8683 150.512 90.1822 150.696 89.3132C150.874 88.4397 150.969 87.2734 150.969 85.8189L151.006 58.8341C150.771 57.2608 150.442 56.2454 150.023 55.7743C149.605 55.3078 149.275 55.0745 149.036 55.0745L148.768 54.3748L148.772 54.3793Z" fill="#E2B161"/>
<path d="M194.812 67.0152C194.812 65.794 194.468 64.4676 193.787 63.0407C193.1 61.6137 192.159 60.2141 190.965 58.8466C189.77 57.479 188.411 56.2533 186.887 55.1739C185.364 54.0945 183.779 53.3078 182.133 52.8093C180.487 52.3153 178.841 52.1964 177.195 52.4525C175.549 52.7132 174.067 53.5091 172.75 54.8492C171.49 56.0703 170.888 57.5111 170.949 59.1713C171.006 60.8316 171.721 62.3317 173.098 63.6718C174.114 64.6643 175.624 65.6568 177.627 66.6493C179.631 67.6418 182.279 68.5474 185.571 69.3661C188.025 70.011 190.085 70.7702 191.764 71.6438C193.439 72.5219 194.812 73.455 195.889 74.4429C197.624 76.1352 198.635 78.0287 198.932 80.1234C199.228 82.2182 198.776 84.3175 197.577 86.4077C196.975 87.3956 196.274 88.3149 195.461 89.1565C194.652 90.0026 193.768 90.6841 192.808 91.2055C191.849 91.8458 190.786 92.3809 189.62 92.8154C188.453 93.2499 187.24 93.5975 185.984 93.8582C184.729 94.1189 183.468 94.2927 182.213 94.3796C180.957 94.4665 179.758 94.4757 178.62 94.4162C176.466 94.2379 174.208 93.7851 171.843 93.0533C169.477 92.3215 167.013 91.2009 164.44 89.6825L163.726 89.2434L165.894 79.5517L166.613 79.7255C166.491 80.2515 166.613 80.9192 166.971 81.7334C167.328 82.5475 167.775 83.3936 168.316 84.2672C168.852 85.1408 169.421 85.9412 170.018 86.673C170.615 87.4048 171.123 87.9399 171.542 88.2921C172.736 89.4584 174.053 90.3777 175.488 91.05C176.922 91.7223 178.417 92.2026 179.974 92.4953C181.47 92.7926 182.951 92.9069 184.418 92.852C185.886 92.7972 187.278 92.5959 188.595 92.2483C189.314 92.0745 189.973 91.8595 190.57 91.5943C191.167 91.3336 191.797 91.0271 192.456 90.6795C193.053 90.2725 193.594 89.838 194.073 89.3714C194.492 88.9049 194.868 88.411 195.197 87.8896C195.527 87.3682 195.752 86.8147 195.875 86.2293C195.997 85.3009 195.936 84.4547 195.701 83.6955C195.282 82.5886 194.581 81.6419 193.594 80.8552C192.606 80.0685 191.454 79.3962 190.142 78.8428C188.825 78.2894 187.405 77.8046 185.881 77.3975C184.353 76.9904 182.843 76.5514 181.347 76.0803C178.474 75.2616 175.948 74.0953 173.766 72.5768C171.584 71.0584 169.999 69.3249 169.016 67.3719C168.033 65.419 167.732 63.3379 168.128 61.1289C168.518 58.9198 169.886 56.6786 172.224 54.4101C173.78 52.8413 175.831 51.8671 178.38 51.4921C180.924 51.117 183.497 51.1216 186.102 51.5012C188.703 51.8854 191.068 52.5852 193.189 53.6097C195.31 54.6296 196.764 55.7868 197.539 57.0674L195.282 67.0198H194.835L194.812 67.0152Z" fill="#E2B161"/>
<path d="M35.9011 165.804C35.539 168.32 35.0217 170.62 34.3491 172.71C33.6766 174.801 32.9006 176.648 32.0212 178.258C30.3658 181.176 28.4799 183.317 26.3589 184.675L25.4277 185.201C24.0827 185.956 22.6624 186.431 21.1622 186.633C19.662 186.834 18.1617 186.806 16.6615 186.56C13.9715 186.107 11.7611 185.251 10.0304 183.994C8.29976 182.736 6.97822 181.227 6.07527 179.466C5.1676 177.705 4.64088 175.766 4.48568 173.657C4.33048 171.544 4.50921 169.417 5.02653 167.281C5.54385 165.145 6.34333 163.069 7.42971 161.057C8.51608 159.044 9.83288 157.26 11.3848 155.701C13.2989 153.789 15.5469 152.243 18.1335 151.058C20.7201 149.878 23.5654 149.311 26.6646 149.362C28.0096 149.311 29.444 149.426 30.9678 149.7C32.4915 149.979 34.1328 150.468 35.8917 151.173V138.119C35.6848 136.811 35.412 135.956 35.0781 135.554C34.7395 135.151 34.4714 134.95 34.2645 134.95L34.0341 134.268L41.3236 131.629V179.621C41.3236 180.879 41.3894 181.885 41.5164 182.64C41.6434 183.395 41.8127 236.806 42.0196 237.232C42.2265 237.657 42.4335 237.936 42.6404 238.059C42.8473 238.187 43.0025 238.247 43.106 238.247V238.928C39.1226 238.928 35.8917 235.786 35.8917 231.912V165.809L35.9011 165.804ZM35.9011 151.767C32.642 150.51 29.5428 149.883 26.5941 149.883C23.8523 149.984 21.4867 150.688 19.4974 151.996C17.508 153.304 15.8385 155.092 14.4935 157.352C13.5623 159.012 12.8239 161.011 12.2831 163.353C11.7376 165.69 11.4695 168.068 11.4695 170.483C11.4695 172.898 11.8034 175.212 12.4759 177.426C13.1484 179.64 14.2066 181.451 15.6551 182.859C17.0001 184.167 18.4721 185.009 20.0758 185.389C21.6795 185.764 23.3584 185.526 25.1173 184.671C26.152 184.117 27.069 183.449 27.8732 182.672C28.6727 181.894 29.4111 180.998 30.0836 179.992C31.4286 178.13 32.5009 176.045 33.3051 173.73C34.1046 171.416 34.7113 169.079 35.1298 166.714C35.3368 165.708 35.492 164.629 35.5954 163.467C35.7506 161.907 35.8259 160.247 35.8259 158.486H35.9058V151.772L35.9011 151.767Z" fill="#E2B161"/>
<path d="M79.9627 189.751H72.7484V166.709C72.3863 168.973 71.9442 171.036 71.4316 172.897C70.9143 174.759 70.317 176.419 69.6492 177.878C69.1319 178.934 68.5346 179.968 67.8668 180.97C67.1943 181.976 66.4042 182.895 65.5012 183.723C64.5983 184.551 63.6107 185.219 62.5525 185.722C61.4897 186.225 60.3139 186.476 59.0253 186.476C56.9043 186.476 55.183 186.051 53.8662 185.196C52.5494 184.341 51.5148 183.234 50.7623 181.875C50.0146 180.517 49.4925 178.985 49.2104 177.27C48.9235 175.559 48.7824 173.848 48.7824 172.138V156.29C48.7824 155.032 48.7024 154.026 48.552 153.271C48.3968 152.517 48.2274 151.94 48.0487 151.538C47.8653 151.135 47.6725 150.856 47.4656 150.706C47.2587 150.555 47.1035 150.477 47 150.477V149.795H54.2142V172.133C54.2142 173.039 54.266 174.132 54.3694 175.417C54.4729 176.698 54.694 177.956 55.0279 179.191C55.3618 180.425 55.8556 181.541 56.4999 182.548C57.1442 183.554 58.0142 184.235 59.1006 184.583C60.1869 184.935 61.2451 184.935 62.2797 184.583C63.3144 184.231 64.2597 183.677 65.1109 182.923C65.9621 182.168 66.7287 181.313 67.4012 180.357C68.0737 179.401 68.6145 178.495 69.0284 177.64C70.1665 175.225 71.0695 172.271 71.742 168.772C72.4145 165.277 72.7484 161.111 72.7484 156.285C72.7484 155.028 72.6685 154.021 72.518 153.267C72.3675 152.512 72.1935 151.936 72.0148 151.533C71.8314 151.131 71.6385 150.852 71.4316 150.701C71.2247 150.55 71.0695 150.472 70.966 150.472V149.791H78.1803V179.675C78.1803 180.933 78.2461 181.939 78.3731 182.694C78.5001 183.449 78.6694 187.615 78.8763 188.045C79.0832 188.475 79.2902 188.75 79.4971 188.873C79.704 189.001 79.8592 189.061 79.9627 189.061V189.742V189.751Z" fill="#E2B161"/>
<path d="M152.84 178.154C153.992 180.116 155.088 181.936 156.132 183.615C157.176 185.293 158.13 186.766 158.991 188.024C159.856 189.286 160.59 190.265 161.201 190.965C161.813 191.664 162.335 192.017 162.768 192.017V192.963H150.14V192.017C150.573 192.017 150.389 190.933 149.595 188.76C148.8 186.592 147.394 183.825 145.371 180.463L130.524 155.56C129.523 153.881 127.679 152.848 125.685 152.848H122.266C119.176 152.848 116.67 155.285 116.67 158.29V242.963C116.67 244.642 116.759 246.027 116.938 247.111C117.116 248.2 117.352 249.019 117.638 249.581C117.925 250.144 118.212 250.528 118.504 250.738C118.791 250.949 119.007 251.054 119.153 251.054V252.001H106.629V251.054C106.775 251.054 106.986 250.949 107.278 250.738C107.565 250.528 107.833 250.144 108.087 249.581C108.336 249.023 108.571 248.2 108.788 247.111C109.004 246.027 109.112 244.642 109.112 242.963V128.278C109.112 126.53 109.004 125.126 108.788 124.079C108.571 123.027 108.336 122.227 108.087 121.664C107.833 121.106 107.565 120.717 107.278 120.507C106.991 120.296 106.775 120.191 106.629 120.191V119.245H107.602C110.843 119.176 114.186 118.966 117.643 118.613C121.095 118.266 124.406 118.087 127.576 118.087C133.045 118.087 137.649 118.526 141.393 119.4C145.132 120.278 148.156 121.486 150.46 123.022C152.764 124.564 154.415 126.402 155.426 128.538C156.433 130.674 156.936 133.002 156.936 135.522C156.936 137.622 156.593 139.584 155.911 141.404C155.224 143.224 154.109 144.871 152.562 146.339C151.015 147.807 149.002 149.051 146.519 150.067L141.303 152.189C139.648 152.861 138.976 154.8 139.874 156.31L152.835 178.154H152.84ZM116.679 119.556V152.006H127.51C129.889 152.006 132.363 151.759 134.926 151.27C137.489 150.78 139.836 149.902 141.967 148.644C144.097 147.382 145.865 145.685 147.276 143.549C148.682 141.413 149.388 138.738 149.388 135.513C149.388 132.289 148.682 129.618 147.276 127.482C145.87 125.346 144.097 123.649 141.967 122.387C139.836 121.124 137.489 120.232 134.926 119.711C132.363 119.185 129.889 118.924 127.51 118.924C125.85 118.924 124.096 118.993 122.257 119.135C120.413 119.277 118.555 119.414 116.679 119.556Z" fill="#E2B161"/>
<path d="M216.535 192.959H206.494V162.717C206.494 160.828 206.405 158.729 206.226 156.415C206.047 154.105 205.596 151.937 204.876 149.902C204.157 147.871 203.056 146.174 201.584 144.811C200.107 143.444 198.076 142.762 195.485 142.762C192.893 142.762 190.645 143.128 188.736 143.865C186.826 144.601 185.298 145.456 184.151 146.435C182.998 147.418 182.241 148.397 181.884 149.376C181.522 150.355 181.597 151.128 182.1 151.686C182.387 152.038 182.871 152.298 183.558 152.472C184.24 152.646 185.016 152.806 185.876 152.943C186.742 153.085 187.659 153.222 188.628 153.364C189.601 153.506 190.518 153.748 191.379 154.1C193.754 155.011 195.644 156.46 197.046 158.459C198.447 160.453 199.44 162.676 200.013 165.128C200.587 167.579 200.804 170.099 200.662 172.688C200.517 175.277 200.013 177.554 199.153 179.512C197.497 183.573 195.052 186.935 191.812 189.592C188.571 192.254 185.049 193.512 181.235 193.375C177.637 193.233 174.721 192.273 172.492 190.489C170.263 188.705 168.73 186.501 167.902 183.875C167.074 181.25 166.985 178.414 167.634 175.368C168.283 172.322 169.666 169.486 171.791 166.861C173.912 164.236 176.828 162.013 180.534 160.193C184.24 158.372 188.755 157.357 194.083 157.147C194.224 157.078 194.478 157.041 194.836 157.041C193.759 156.131 192.498 155.399 191.059 154.837C189.761 154.347 188.36 154.032 186.85 153.89C185.34 153.748 183.915 153.716 182.589 153.785C181.254 153.853 180.068 153.959 179.024 154.1C177.98 154.242 177.312 154.347 177.026 154.416C176.809 153.369 177.115 152.125 177.943 150.688C178.77 149.252 179.993 147.889 181.611 146.595C183.229 145.301 185.209 144.217 187.546 143.339C189.883 142.465 192.526 142.026 195.48 142.026C198.936 142.026 201.848 142.552 204.232 143.599C206.612 144.651 208.53 146.087 209.993 147.903C211.456 149.723 212.495 151.91 213.116 154.466C213.737 157.023 214.047 159.767 214.047 162.708V183.921C214.047 185.673 214.136 187.072 214.32 188.12C214.498 189.172 214.734 189.995 215.02 190.589C215.307 191.184 215.594 191.568 215.886 191.747C216.173 191.92 216.389 192.007 216.535 192.007V192.954V192.959ZM195.593 157.887C192.714 157.887 189.996 158.24 187.443 158.935C184.889 159.635 182.655 160.719 180.75 162.191C178.841 163.659 177.331 165.516 176.217 167.758C175.102 169.999 174.542 172.624 174.542 175.633C174.542 177.102 174.702 178.574 175.027 180.042C175.351 181.511 175.892 182.878 176.645 184.136C177.402 185.398 178.352 186.482 179.504 187.392C180.652 188.303 182.058 188.897 183.713 189.176C185.439 189.528 187.062 189.455 188.571 188.966C190.081 188.476 191.487 187.758 192.78 186.812C194.078 185.865 195.207 184.731 196.181 183.4C197.154 182.069 197.925 180.706 198.504 179.306C199.153 177.628 199.6 175.826 199.854 173.895C200.103 171.97 200.126 170.044 199.91 168.119C199.694 166.193 199.223 164.355 198.504 162.608C197.784 160.86 196.811 159.282 195.588 157.883L195.593 157.887Z" fill="#E2B161"/>
<path d="M228.731 192.67C228.731 197.193 228.139 201.177 226.949 204.625C225.764 208.069 224.202 210.96 222.274 213.292C220.341 215.625 218.173 217.381 215.765 218.566C213.358 219.746 210.912 220.34 208.434 220.34V219.609C210.061 219.609 211.495 219.224 212.737 218.461C213.978 217.692 215.055 216.686 215.977 215.433C216.899 214.18 217.661 212.734 218.263 211.102C218.865 209.464 219.377 207.813 219.805 206.144C220.727 202.247 221.221 197.755 221.291 192.674V152C221.291 151.625 221.263 151.241 221.202 150.871C220.929 149.311 220.591 148.282 220.177 147.779C219.716 147.221 219.344 146.942 219.062 146.942L218.742 146.105C223.553 144.294 228.736 147.747 228.736 152.764V192.67H228.731ZM224.038 133.838C222.613 133.838 221.423 133.367 220.459 132.42C219.5 131.473 219.015 130.303 219.015 128.903C219.015 127.503 219.495 126.333 220.459 125.386C221.418 124.439 222.613 123.968 224.038 123.968C225.463 123.968 226.653 124.439 227.617 125.386C228.576 126.333 229.061 127.503 229.061 128.903C229.061 130.303 228.581 131.478 227.617 132.42C226.657 133.367 225.463 133.838 224.038 133.838Z" fill="#E2B161"/>
<path d="M284 192.959H273.959V162.717C273.959 160.828 273.87 158.729 273.691 156.415C273.512 154.105 273.061 151.937 272.341 149.902C271.622 147.871 270.521 146.174 269.049 144.811C267.572 143.444 265.541 142.762 262.949 142.762C260.358 142.762 258.11 143.128 256.201 143.865C254.291 144.601 252.763 145.456 251.615 146.435C250.463 147.418 249.706 148.397 249.349 149.376C248.986 150.355 249.062 151.128 249.565 151.686C249.852 152.038 250.336 152.298 251.023 152.472C251.705 152.646 252.481 152.806 253.341 152.943C254.207 153.085 255.124 153.222 256.093 153.364C257.066 153.506 257.983 153.748 258.844 154.1C261.219 155.011 263.109 156.46 264.511 158.459C265.912 160.453 266.905 162.676 267.478 165.128C268.052 167.579 268.268 170.099 268.127 172.688C267.981 175.277 267.478 177.554 266.618 179.512C264.962 183.573 262.517 186.935 259.276 189.592C256.036 192.254 252.514 193.512 248.7 193.375C245.102 193.233 242.186 192.273 239.957 190.489C237.728 188.705 236.195 186.501 235.367 183.875C234.539 181.25 234.45 178.414 235.099 175.368C235.748 172.322 237.13 169.486 239.256 166.861C241.377 164.236 244.293 162.013 247.999 160.193C251.705 158.372 256.22 157.357 261.548 157.147C261.689 157.078 261.943 157.041 262.3 157.041C261.223 156.131 259.963 155.399 258.524 154.837C257.226 154.347 255.824 154.032 254.315 153.89C252.805 153.748 251.38 153.716 250.054 153.785C248.718 153.853 247.533 153.959 246.489 154.1C245.445 154.242 244.777 154.347 244.49 154.416C244.274 153.369 244.58 152.125 245.408 150.688C246.235 149.252 247.458 147.889 249.076 146.595C250.694 145.301 252.673 144.217 255.011 143.339C257.348 142.465 259.991 142.026 262.945 142.026C266.401 142.026 269.312 142.552 271.697 143.599C274.076 144.651 275.995 146.087 277.458 147.903C278.92 149.723 279.96 151.91 280.581 154.466C281.201 157.023 281.512 159.767 281.512 162.708V183.921C281.512 185.673 281.601 187.072 281.785 188.12C281.963 189.172 282.198 189.995 282.485 190.589C282.772 191.184 283.059 191.568 283.351 191.747C283.637 191.92 283.854 192.007 284 192.007V192.954V192.959ZM263.058 157.887C260.179 157.887 257.461 158.24 254.907 158.935C252.354 159.635 250.12 160.719 248.215 162.191C246.306 163.659 244.796 165.516 243.682 167.758C242.567 169.999 242.007 172.624 242.007 175.633C242.007 177.102 242.167 178.574 242.492 180.042C242.816 181.511 243.357 182.878 244.11 184.136C244.867 185.398 245.817 186.482 246.969 187.392C248.116 188.303 249.523 188.897 251.178 189.176C252.904 189.528 254.526 189.455 256.036 188.966C257.546 188.476 258.952 187.758 260.245 186.812C261.543 185.865 262.672 184.731 263.645 183.4C264.619 182.069 265.39 180.706 265.969 179.306C266.618 177.628 267.064 175.826 267.318 173.895C267.568 171.97 267.591 170.044 267.375 168.119C267.158 166.193 266.688 164.355 265.969 162.608C265.249 160.86 264.276 159.282 263.053 157.883L263.058 157.887Z" fill="#E2B161"/>
<path d="M213.252 22.304H5.6802C3.51686 22.304 1.7627 20.598 1.7627 18.4941H209.335C211.498 18.4941 213.252 20.2001 213.252 22.304Z" fill="#E2B161"/>
<path d="M0.00390625 219.866H206.278C210.149 219.866 213.93 218.718 217.114 216.582L0.00390625 219.866Z" fill="#E2B161"/>
<path d="M0.0046788 217.99C50.5656 218.209 140.956 218.607 190.576 218.827L204.186 218.886C208.325 219.11 212.36 218.379 215.91 216.284L216.282 216.119L216.475 216.046L216.574 216.009L216.625 215.996C216.837 216.261 216.23 215.378 217.11 216.586C217.956 217.811 217.321 216.952 217.505 217.235C216.71 218.086 215.6 218.575 214.551 219.065C211.358 220.565 207.671 220.958 204.186 220.853L190.576 220.912C173.227 220.99 126.823 221.191 108.901 221.269L3.86107 221.731C1.73065 221.74 0 220.066 0 217.994L0.0046788 217.99Z" fill="#E2B161"/>
<path d="M180.159 2.56055L181.029 3.67195C182.045 4.97088 183.24 6.12803 184.575 7.12052L185.718 7.96666L184.928 8.55209C183.362 9.71381 181.961 11.0768 180.761 12.6044L180.159 13.3728L179.557 12.6044C178.363 11.0813 176.961 9.71839 175.391 8.55209L174.601 7.96666L175.762 7.10223C177.084 6.12345 178.259 4.97546 179.266 3.69025L180.155 2.56055H180.159Z" fill="#E2B161"/>
<path d="M194.249 2.56055L195.119 3.67195C196.135 4.97088 197.33 6.12803 198.665 7.12052L199.808 7.96666L199.018 8.55209C197.452 9.71381 196.05 11.0768 194.851 12.6044L194.249 13.3728L193.647 12.6044C192.453 11.0813 191.051 9.71839 189.481 8.55209L188.69 7.96666L189.852 7.10223C191.174 6.12345 192.349 4.97546 193.356 3.69025L194.245 2.56055H194.249Z" fill="#E2B161"/>
<path d="M60.9973 233.198L61.8673 234.31C62.8832 235.609 64.0777 236.766 65.4133 237.758L66.5561 238.604L65.766 239.19C64.2 240.351 62.7985 241.714 61.5993 243.242L60.9973 244.01L60.3953 243.242C59.2008 241.719 57.7993 240.356 56.2286 239.19L55.4385 238.604L56.6001 237.74C57.9216 236.761 59.0973 235.613 60.1038 234.328L60.9926 233.198H60.9973Z" fill="#E2B161"/>
<path d="M75.0872 233.198L75.9572 234.31C76.973 235.609 78.1676 236.766 79.5032 237.758L80.646 238.604L79.8559 239.19C78.2898 240.351 76.8884 241.714 75.6891 243.242L75.0872 244.01L74.4852 243.242C73.2907 241.719 71.8892 240.356 70.3184 239.19L69.5283 238.604L70.69 237.74C72.0115 236.761 73.1872 235.613 74.1936 234.328L75.0825 233.198H75.0872Z" fill="#E2B161"/>
<path d="M90.4583 233.198L91.3283 234.31C92.3441 235.609 93.5387 236.766 94.8743 237.758L96.0171 238.604L95.227 239.19C93.6609 240.351 92.2595 241.714 91.0602 243.242L90.4583 244.01L89.8563 243.242C88.6618 241.719 87.2603 240.356 85.6895 239.19L84.8994 238.604L86.061 237.74C87.3826 236.761 88.5583 235.613 89.5647 234.328L90.4535 233.198H90.4583Z" fill="#E2B161"/>
<path d="M153.345 41.4369C151.92 41.4369 150.73 40.9658 149.766 40.0191C148.807 39.0723 148.322 37.9015 148.322 36.5019C148.322 35.1024 148.802 33.9315 149.766 32.9847C150.725 32.038 151.92 31.5669 153.345 31.5669C154.77 31.5669 155.96 32.038 156.924 32.9847C157.883 33.9315 158.368 35.1024 158.368 36.5019C158.368 37.9015 157.888 39.0769 156.924 40.0191C155.965 40.9658 154.77 41.4369 153.345 41.4369Z" fill="#E2B161"/>
</svg>
