<svg width="181" height="181" viewBox="0 0 181 181" fill="none" xmlns="http://www.w3.org/2000/svg">
<rect x="1.5" y="1.5" width="178" height="178" rx="89" stroke="#67141C" stroke-width="3"/>
<path d="M44.3294 77.035L39.9346 77.0292V76.7004C39.9857 76.7004 40.0605 76.6641 40.1609 76.5915C40.2613 76.5188 40.3558 76.385 40.4423 76.1901C40.5309 75.9951 40.6116 75.7102 40.6884 75.3318C40.7651 74.9533 40.8025 74.4735 40.8025 73.8904L40.8301 49.4454C40.8301 48.8376 40.7946 48.3501 40.7199 47.985C40.6451 47.6199 40.5644 47.3408 40.4758 47.1458C40.3872 46.9509 40.2947 46.8171 40.1944 46.7444C40.094 46.6718 40.0192 46.6335 39.97 46.6335V46.3048H40.3085C41.4363 46.2818 42.6073 46.2111 43.8216 46.0907C45.0359 45.9702 46.1952 45.911 47.2973 45.9129C49.2005 45.9148 50.8025 46.0696 52.1054 46.3755C53.4064 46.6813 54.4573 47.1019 55.2584 47.639C56.0594 48.1762 56.6341 48.8146 56.9844 49.5582C57.3347 50.3018 57.5079 56.2105 57.5059 57.0859C57.5059 57.9614 57.3268 58.77 56.9746 59.5117C56.6223 60.2534 56.0436 60.8861 55.2387 61.408C54.4337 61.9298 53.3788 62.3427 52.072 62.6448C50.7651 62.9468 49.1572 63.0978 47.2501 63.094L44.7722 63.0901C44.0401 63.0901 43.4437 63.6655 43.4437 64.3766L43.43 73.8924C43.43 74.4754 43.4654 74.9571 43.5402 75.3337C43.615 75.7103 43.6957 75.997 43.7823 76.192C43.8689 76.3869 43.9633 76.5208 44.0637 76.5934C44.1641 76.666 44.2507 76.7023 44.3274 76.7043V77.033L44.3294 77.035ZM47.256 62.7671V62.8034C48.0609 62.8034 48.9072 62.7212 49.8008 62.5511C50.6943 62.3829 51.517 62.0789 52.2708 61.6412C53.0245 61.2054 53.6484 60.6147 54.1405 59.873C54.6305 59.1313 54.8785 58.2023 54.8785 57.0821C54.8785 55.9639 54.6364 49.931 54.1483 49.1893C53.6583 48.4457 53.0383 47.855 52.2845 47.4154C51.5307 46.9776 50.71 46.666 49.8165 46.4806C48.9249 46.2971 48.0767 46.2034 47.2737 46.2034C46.6695 46.2034 46.0495 46.2264 45.4079 46.2742L44.6915 46.3277C44.0007 46.3793 43.4654 46.9394 43.4654 47.6142L43.4516 61.4711C43.4516 62.1822 44.044 62.7594 44.7762 62.7614L47.256 62.7652V62.7671Z" fill="#67141C"/>
<path d="M71.2838 75.3933C71.2247 75.0282 71.1932 74.5446 71.1932 73.9348L71.2031 66.56C71.209 65.5392 71.1007 64.5854 70.8862 63.6946C70.6717 62.8095 70.3076 62.0487 69.8037 61.4141C69.294 60.7795 68.6248 60.2786 67.7982 59.9135C66.9677 59.5484 65.9541 59.3611 64.7535 59.3611C63.7242 59.3611 62.8071 59.5121 61.9923 59.8141C61.1775 60.1161 60.4867 60.4908 59.9238 60.9439C59.3609 61.3912 58.9319 61.8652 58.6425 62.3661C58.5107 62.5897 58.4182 62.8019 58.3631 63.0007C58.2745 63.318 58.5618 63.6143 58.8964 63.5665C58.9358 63.5608 58.9751 63.555 59.0184 63.5493C59.3825 63.5015 59.7958 63.4652 60.2564 63.4442C60.7228 63.4174 61.2168 63.4346 61.7423 63.4805C62.2678 63.5321 62.7559 63.6411 63.2066 63.8131C63.7104 64.0062 64.1493 64.2604 64.5193 64.5796C64.3953 64.5796 64.3107 64.5892 64.2576 64.616C62.4075 64.6886 60.8311 65.0384 59.5459 65.6673C58.2548 66.2981 57.2353 67.0685 56.4953 67.9803C55.7553 68.8921 55.2731 69.8766 55.0488 70.9337C54.8185 71.9965 54.85 72.9809 55.1393 73.8927C55.4227 74.8046 55.9541 75.5749 56.7315 76.1943C57.503 76.8136 58.5166 77.152 59.7722 77.1997C61.1027 77.2514 62.3288 76.8193 63.4546 75.8922C64.5862 74.9709 65.4384 73.8029 66.0171 72.3922C66.3182 71.7097 66.4934 70.9241 66.5426 70.0218C66.5957 69.1215 66.5209 68.246 66.3221 67.3915C66.1234 66.5428 65.7809 65.7667 65.2928 65.0728C64.8047 64.3808 64.1513 63.8743 63.3247 63.5569C63.0196 63.4327 62.7028 63.3486 62.3642 63.297C62.0257 63.2492 61.7049 63.1976 61.4038 63.1517C61.1027 63.1058 60.835 63.0485 60.5988 62.9854C60.3568 62.928 60.1914 62.8344 60.0891 62.714C59.912 62.5152 59.8903 62.2514 60.0143 61.9073C60.1422 61.5689 60.406 61.2306 60.8075 60.8865C61.205 60.5482 61.7404 60.2519 62.4056 59.9957C63.0708 59.7396 63.8521 59.6153 64.7535 59.6153C65.6549 59.6153 66.3615 59.8543 66.8771 60.3283C67.3869 60.8081 67.7667 61.3969 68.0187 62.1042C68.2647 62.8076 68.4201 63.5627 68.4851 64.3655C68.5441 65.1684 68.5756 65.8967 68.5756 66.5581L68.5599 75.4583C68.5599 75.8865 68.5441 76.3147 68.5166 76.7429C68.4575 77.6853 68.5127 77.6738 68.6504 78.2721C69.7821 82.9229 74.3009 84.2782 78.6701 83.2823C79.4042 83.1409 80.1285 82.9593 80.835 82.7566C81.3723 82.6152 81.8801 82.3934 82.4332 82.3151C82.7185 82.2749 82.8957 81.992 82.811 81.7244C82.7284 81.4644 82.4312 81.323 82.1734 81.4338C81.6794 81.646 81.1362 81.7053 80.6107 81.7875C78.6426 82.0991 76.3694 82.1316 74.5843 81.4377C72.8307 80.7552 71.9352 79.3694 71.7384 77.6776C71.6636 77.2246 71.7325 76.6779 71.5298 76.2497M65.7927 66.5141C66.0446 67.1239 66.206 67.7586 66.2808 68.4314C66.3556 69.0986 66.3457 69.7695 66.2592 70.4366C66.1686 71.1095 66.0131 71.7327 65.7868 72.3176C65.5821 72.8012 65.3145 73.281 64.9779 73.7398C64.6355 74.2043 64.2438 74.6 63.7931 74.9269C63.3365 75.2499 62.8504 75.5004 62.3249 75.6724C61.7994 75.8387 61.2365 75.8655 60.6362 75.7393C60.0576 75.6456 59.5695 75.4373 59.168 75.12C58.7705 74.8026 58.4398 74.428 58.1761 73.9845C57.9143 73.5468 57.7254 73.0727 57.6132 72.5623C57.5069 72.0519 57.4479 71.5415 57.4479 71.0311C57.4538 69.9836 57.6467 69.0718 58.0383 68.2919C58.4241 67.5158 58.9496 66.8697 59.6207 66.3593C60.28 65.8489 61.0574 65.4742 61.947 65.2334C62.7657 65.0078 63.6357 64.8893 64.5469 64.8702C64.6965 64.8664 64.8421 64.9314 64.9346 65.0461C65.2928 65.4895 65.5802 65.977 65.7986 66.5141H65.7927Z" fill="#67141C"/>
<path d="M78.29 77.0827L73.9326 77.077V76.7482C73.9838 76.7482 74.0586 76.7176 74.159 76.6564C74.2593 76.5972 74.3538 76.4633 74.4404 76.255C74.529 76.0485 74.6097 75.7618 74.6864 75.3967C74.7612 75.0316 74.8006 74.5461 74.8006 73.9363L74.8301 40.3425C74.8301 40.2011 74.8202 40.0577 74.7947 39.9182C74.7002 39.404 74.5821 39.0618 74.4384 38.8879C74.2751 38.6929 74.1452 38.5954 74.0448 38.5954L73.9326 38.2666C75.6449 37.6492 77.4654 38.8802 77.4634 40.6541L77.4319 73.9382C77.4319 74.546 77.4615 75.0335 77.5244 75.3986C77.5854 75.7637 77.6681 76.0504 77.7685 76.2569C77.8669 76.4633 77.9673 76.5991 78.0676 76.6583C78.168 76.7195 78.2428 76.7501 78.292 76.7501V77.0789L78.29 77.0827Z" fill="#67141C"/>
<path d="M97.3753 77.1078L93.8819 77.104L93.8976 66.5923C93.8976 65.9348 93.8681 65.2045 93.8071 64.4017C93.7461 63.5988 93.5906 62.8438 93.3406 62.1384C93.0907 61.433 92.7089 60.8424 92.1971 60.3664C91.6835 59.8904 90.9769 59.6534 90.0755 59.6515C89.1741 59.6515 88.3908 59.7776 87.7275 60.0319C87.0643 60.2861 86.5309 60.5843 86.1294 60.9246C85.7279 61.2648 85.4642 61.6051 85.3382 61.9453C85.2123 62.2856 85.2379 62.5532 85.413 62.7482C85.5134 62.8705 85.6827 62.9623 85.9208 63.0235C86.159 63.0846 86.4286 63.1401 86.7277 63.1879C87.0289 63.2376 87.3477 63.2873 87.6862 63.335C88.0247 63.3847 88.3436 63.4708 88.6447 63.5912C89.4713 63.9085 90.1267 64.4151 90.6148 65.109C91.1029 65.8029 91.4453 66.577 91.6441 67.4277C91.8429 68.2802 91.9177 69.1557 91.8665 70.0561C91.8153 70.9564 91.6382 71.7478 91.3371 72.4283C90.7585 73.839 89.9063 75.0051 88.7766 75.9284C87.6488 76.8517 86.4207 77.2875 85.0922 77.2378C83.8405 77.1862 82.825 76.8517 82.0515 76.2304C81.276 75.6092 80.7447 74.8407 80.4593 73.9289C80.1719 73.0152 80.1424 72.0307 80.3687 70.9717C80.5951 69.9146 81.0792 68.9283 81.8192 68.0184C82.5593 67.1065 83.5748 66.3362 84.8659 65.7054C86.157 65.0746 87.7275 64.7247 89.5815 64.654C89.6307 64.6311 89.7193 64.6177 89.8452 64.6177C89.4693 64.3004 89.0324 64.0442 88.5305 63.8492C88.0798 63.6791 87.5917 63.5683 87.0663 63.5186C86.5408 63.4689 86.0448 63.4574 85.5823 63.4803C85.1178 63.5033 84.7045 63.5396 84.3424 63.5874C83.9783 63.6352 83.746 63.6715 83.6476 63.6963C83.5728 63.3312 83.6791 62.8992 83.9684 62.4003C84.2558 61.9014 84.6829 61.4292 85.2477 60.9781C85.8126 60.5289 86.5014 60.1523 87.3162 59.8503C88.131 59.5482 89.0501 59.3953 90.0775 59.3972C91.28 59.3972 92.2936 59.5827 93.1222 59.9497C93.9507 60.3167 94.6179 60.8156 95.1257 61.4483C95.6335 62.083 95.9937 62.8438 96.2082 63.7307C96.4227 64.6196 96.529 65.5735 96.529 66.5962L96.5172 73.969C96.5172 74.5769 96.5467 75.0644 96.6097 75.4295C96.6707 75.7946 96.7533 76.0813 96.8537 76.2878C96.9521 76.4942 97.0525 76.6299 97.1529 76.6892C97.2532 76.7504 97.328 76.7809 97.3792 76.7809V77.1097L97.3753 77.1078ZM90.105 64.9063C89.1033 64.9063 88.1566 65.0268 87.267 65.2676C86.3774 65.5104 85.6 65.8851 84.9368 66.3954C84.2715 66.9058 83.7441 67.55 83.3563 68.328C82.9667 69.106 82.7718 70.0178 82.7699 71.0654C82.7699 71.5758 82.825 72.0881 82.9371 72.5985C83.0493 73.1107 83.2363 73.5848 83.4981 74.0226C83.7598 74.4603 84.0924 74.8388 84.492 75.1561C84.8915 75.4734 85.3796 75.6799 85.9562 75.7774C86.5565 75.8997 87.1214 75.8768 87.6469 75.7066C88.1723 75.5365 88.6624 75.288 89.1131 74.9611C89.5638 74.6323 89.9594 74.2386 90.2979 73.776C90.6364 73.3153 90.9061 72.8412 91.1068 72.3538C91.3331 71.7707 91.4906 71.1438 91.5792 70.4747C91.6677 69.8057 91.6756 69.1366 91.6008 68.4676C91.526 67.7985 91.3646 67.1601 91.1147 66.5503C90.8647 65.9424 90.5282 65.3938 90.1031 64.9063H90.105Z" fill="#67141C"/>
<path d="M99.2393 60.8328C100.963 60.2001 102.807 61.4407 102.804 63.2299L102.788 73.9767C102.788 74.5846 102.817 75.072 102.88 75.4371C102.941 75.8022 103.024 76.089 103.124 76.2954C103.223 76.5038 103.323 76.6376 103.423 76.6969C103.524 76.758 103.599 76.7886 103.65 76.7886V77.1174L99.2531 77.1117V76.7829C99.3298 76.7829 99.4164 76.7523 99.5168 76.6911C99.6172 76.6319 99.7097 76.4981 99.7982 76.2897C99.8868 76.0832 99.9675 75.7965 100.044 75.4333C100.119 75.0682 100.158 74.5808 100.158 73.9729L100.174 62.6947C100.076 62.0371 99.938 61.6128 99.7628 61.4159C99.5876 61.2209 99.4499 61.1234 99.3495 61.1234L99.2373 60.8309L99.2393 60.8328Z" fill="#67141C"/>
<path d="M118.506 66.114C118.506 65.6036 118.363 65.0492 118.077 64.4528C117.79 63.8564 117.396 63.2715 116.896 62.6999C116.397 62.1284 115.828 61.6161 115.19 61.1649C114.552 60.7138 113.889 60.385 113.2 60.1767C112.511 59.9702 111.823 59.9205 111.134 60.0276C110.445 60.1365 109.825 60.4691 109.274 61.0292C108.746 61.5396 108.495 62.1418 108.52 62.8356C108.544 63.5295 108.843 64.1565 109.42 64.7166C109.845 65.1314 110.476 65.5462 111.315 65.961C112.153 66.3759 113.261 66.7543 114.639 67.0965C115.666 67.366 116.528 67.6834 117.231 68.0485C117.932 68.4155 118.506 68.8054 118.957 69.2183C119.683 69.9256 120.106 70.717 120.23 71.5925C120.354 72.468 120.165 73.3454 119.664 74.219C119.412 74.6319 119.118 75.0161 118.778 75.3678C118.439 75.7215 118.069 76.0063 117.668 76.2242C117.266 76.4918 116.822 76.7155 116.334 76.8971C115.845 77.0787 115.338 77.2239 114.812 77.3329C114.287 77.4419 113.759 77.5145 113.234 77.5508C112.708 77.5871 112.206 77.591 111.73 77.5661C110.829 77.4916 109.884 77.3023 108.894 76.9965C107.904 76.6906 106.873 76.2223 105.796 75.5876L105.497 75.4041L106.404 71.3535L106.705 71.4262C106.654 71.646 106.705 71.9251 106.855 72.2654C107.005 72.6056 107.192 72.9593 107.418 73.3244C107.642 73.6895 107.88 74.024 108.13 74.3298C108.38 74.6357 108.593 74.8593 108.768 75.0065C109.268 75.494 109.819 75.8782 110.419 76.1592C111.02 76.4402 111.645 76.6409 112.297 76.7633C112.923 76.8875 113.543 76.9353 114.157 76.9124C114.771 76.8894 115.353 76.8053 115.904 76.66C116.206 76.5874 116.481 76.4976 116.731 76.3867C116.981 76.2777 117.245 76.1496 117.52 76.0044C117.77 75.8342 117.997 75.6526 118.197 75.4577C118.373 75.2627 118.53 75.0562 118.668 74.8383C118.805 74.6204 118.9 74.3891 118.951 74.1444C119.002 73.7564 118.977 73.4027 118.878 73.0854C118.703 72.6228 118.41 72.2271 117.997 71.8983C117.583 71.5696 117.101 71.2886 116.552 71.0573C116.001 70.826 115.407 70.6233 114.769 70.4532C114.129 70.2831 113.497 70.0996 112.872 69.9027C111.669 69.5605 110.612 69.0731 109.699 68.4384C108.786 67.8038 108.123 67.0793 107.711 66.2631C107.3 65.4468 107.174 64.5771 107.339 63.6538C107.503 62.7305 108.075 61.7938 109.053 60.8457C109.705 60.1901 110.563 59.7829 111.63 59.6261C112.694 59.4694 113.771 59.4713 114.861 59.63C115.95 59.7905 116.94 60.083 117.827 60.5112C118.715 60.9375 119.323 61.4211 119.648 61.9563L118.703 66.1159H118.516L118.506 66.114Z" fill="#67141C"/>
<path d="M52.0036 107.402C51.8521 108.454 51.6356 109.415 51.3542 110.289C51.0727 111.162 50.748 111.935 50.3799 112.607C49.6872 113.827 48.8979 114.722 48.0103 115.289L47.6206 115.509C47.0578 115.825 46.4634 116.023 45.8356 116.108C45.2077 116.192 44.5799 116.18 43.9521 116.077C42.8263 115.888 41.9013 115.53 41.177 115.005C40.4528 114.479 39.8997 113.848 39.5218 113.112C39.142 112.376 38.9215 111.566 38.8566 110.684C38.7917 109.801 38.8664 108.912 39.0829 108.02C39.2994 107.127 39.634 106.259 40.0886 105.418C40.5433 104.577 41.0943 103.832 41.7438 103.18C42.5449 102.381 43.4856 101.735 44.5681 101.239C45.6506 100.746 46.8413 100.509 48.1383 100.53C48.7011 100.509 49.3014 100.557 49.9391 100.672C50.5768 100.788 51.2636 100.993 51.9997 101.287V95.8316C51.9131 95.2849 51.799 94.9275 51.6592 94.7593C51.5175 94.591 51.4053 94.5069 51.3187 94.5069L51.2223 94.2221L54.2729 93.1191V113.177C54.2729 113.703 54.3004 114.123 54.3536 114.439C54.4067 114.754 54.4776 137.077 54.5642 137.255C54.6508 137.433 54.7374 137.549 54.824 137.601C54.9106 137.655 54.9755 137.679 55.0188 137.679V137.964C53.3518 137.964 51.9997 136.651 51.9997 135.032V107.404L52.0036 107.402ZM52.0036 101.536C50.6397 101.01 49.3427 100.748 48.1087 100.748C46.9613 100.79 45.9713 101.085 45.1388 101.631C44.3063 102.178 43.6076 102.925 43.0448 103.87C42.6551 104.564 42.3461 105.399 42.1197 106.378C41.8914 107.355 41.7793 108.349 41.7793 109.358C41.7793 110.367 41.919 111.334 42.2004 112.26C42.4819 113.185 42.9247 113.942 43.5309 114.53C44.0938 115.077 44.7098 115.429 45.3809 115.588C46.052 115.744 46.7547 115.645 47.4907 115.287C47.9237 115.056 48.3075 114.777 48.6441 114.452C48.9786 114.127 49.2876 113.752 49.5691 113.332C50.132 112.554 50.5807 111.682 50.9172 110.715C51.2518 109.748 51.5057 108.771 51.6809 107.783C51.7675 107.362 51.8324 106.911 51.8757 106.425C51.9407 105.774 51.9722 105.08 51.9722 104.344H52.0056V101.538L52.0036 101.536Z" fill="#67141C"/>
<path d="M70.443 117.411H67.4239V107.781C67.2723 108.727 67.0873 109.589 66.8728 110.367C66.6563 111.145 66.4064 111.839 66.1269 112.449C65.9104 112.89 65.6605 113.322 65.381 113.741C65.0995 114.161 64.7689 114.546 64.391 114.892C64.0131 115.238 63.5998 115.517 63.157 115.727C62.7122 115.937 62.2202 116.042 61.6809 116.042C60.7933 116.042 60.073 115.865 59.5219 115.507C58.9708 115.15 58.5378 114.687 58.2229 114.119C57.91 113.552 57.6915 112.911 57.5735 112.194C57.4534 111.479 57.3944 110.765 57.3944 110.05V103.426C57.3944 102.9 57.3609 102.48 57.2979 102.164C57.233 101.849 57.1621 101.608 57.0873 101.44C57.0106 101.272 56.9299 101.155 56.8433 101.092C56.7567 101.029 56.6917 100.996 56.6484 100.996V100.712H59.6675V110.048C59.6675 110.426 59.6892 110.883 59.7325 111.42C59.7758 111.955 59.8683 112.481 60.008 112.997C60.1478 113.513 60.3544 113.98 60.624 114.4C60.8937 114.821 61.2578 115.106 61.7124 115.251C62.167 115.398 62.6099 115.398 63.0429 115.251C63.4758 115.104 63.8714 114.872 64.2277 114.557C64.5839 114.242 64.9047 113.884 65.1861 113.485C65.4676 113.085 65.6939 112.707 65.8671 112.349C66.3434 111.34 66.7213 110.105 67.0027 108.643C67.2842 107.182 67.4239 105.441 67.4239 103.424C67.4239 102.898 67.3904 102.478 67.3275 102.163C67.2645 101.847 67.1917 101.606 67.1169 101.438C67.0401 101.27 66.9594 101.153 66.8728 101.09C66.7862 101.027 66.7213 100.995 66.678 100.995V100.71H69.6971V113.2C69.6971 113.726 69.7246 114.146 69.7778 114.461C69.8309 114.777 69.9017 116.518 69.9883 116.698C70.0749 116.878 70.1615 116.992 70.2481 117.044C70.3347 117.098 70.3997 117.122 70.443 117.122V117.407V117.411Z" fill="#67141C"/>
<path d="M100.941 112.564C101.423 113.384 101.882 114.145 102.319 114.846C102.756 115.548 103.155 116.163 103.516 116.689C103.878 117.217 104.185 117.626 104.441 117.918C104.696 118.211 104.915 118.358 105.096 118.358V118.754H99.8116V118.358C99.9926 118.358 99.9159 117.905 99.5833 116.997C99.2507 116.091 98.6622 114.934 97.8159 113.529L91.6026 103.121C91.1833 102.419 90.4118 101.987 89.5774 101.987H88.1465C86.8535 101.987 85.8045 103.006 85.8045 104.262V139.651C85.8045 140.352 85.8419 140.931 85.9167 141.385C85.9914 141.839 86.0898 142.182 86.2099 142.417C86.33 142.652 86.45 142.812 86.572 142.9C86.6921 142.988 86.7826 143.032 86.8436 143.032V143.428H81.6025V143.032C81.6636 143.032 81.7521 142.988 81.8741 142.9C81.9942 142.812 82.1064 142.652 82.2127 142.417C82.317 142.184 82.4154 141.839 82.5059 141.385C82.5964 140.931 82.6417 140.352 82.6417 139.651V91.7184C82.6417 90.9882 82.5964 90.4014 82.5059 89.9636C82.4154 89.524 82.317 89.1894 82.2127 88.9543C82.1064 88.7211 81.9942 88.5586 81.8741 88.4707C81.7541 88.3828 81.6636 88.3388 81.6025 88.3388V87.9431H82.0099C83.366 87.9144 84.7653 87.8265 86.2119 87.6793C87.6565 87.534 89.042 87.4595 90.3685 87.4595C92.6575 87.4595 94.5843 87.643 96.1509 88.0081C97.7155 88.3751 98.981 88.8798 99.9454 89.522C100.91 90.1662 101.601 90.9347 102.024 91.8274C102.445 92.7201 102.656 93.6931 102.656 94.7463C102.656 95.6237 102.512 96.4438 102.226 97.2046C101.939 97.9654 101.473 98.6535 100.825 99.2672C100.178 99.8808 99.3353 100.401 98.2961 100.825L96.1135 101.712C95.4207 101.993 95.1393 102.804 95.5152 103.434L100.939 112.564H100.941ZM85.8084 88.0731V101.636H90.341C91.3369 101.636 92.3721 101.532 93.4447 101.328C94.5173 101.123 95.4994 100.756 96.391 100.231C97.2826 99.703 98.0226 98.9938 98.613 98.1011C99.2015 97.2084 99.4967 96.0902 99.4967 94.7425C99.4967 93.3949 99.2015 92.2785 98.613 91.3858C98.0245 90.4931 97.2826 89.7839 96.391 89.2563C95.4994 88.7287 94.5173 88.356 93.4447 88.1381C92.3721 87.9182 91.3369 87.8093 90.341 87.8093C89.6462 87.8093 88.9121 87.838 88.1426 87.8972C87.3711 87.9565 86.5937 88.0138 85.8084 88.0731Z" fill="#67141C"/>
<path d="M127.597 118.751H123.395V106.112C123.395 105.323 123.357 104.445 123.283 103.478C123.208 102.513 123.019 101.607 122.718 100.756C122.417 99.9073 121.956 99.1981 121.34 98.6285C120.722 98.0569 119.872 97.7721 118.787 97.7721C117.703 97.7721 116.762 97.925 115.963 98.2328C115.164 98.5406 114.524 98.898 114.044 99.3071C113.562 99.7181 113.245 100.127 113.096 100.536C112.944 100.945 112.976 101.268 113.186 101.502C113.306 101.649 113.509 101.758 113.796 101.83C114.082 101.903 114.406 101.97 114.767 102.027C115.129 102.087 115.512 102.144 115.918 102.203C116.325 102.262 116.709 102.364 117.069 102.511C118.063 102.891 118.854 103.497 119.441 104.333C120.027 105.166 120.443 106.095 120.683 107.12C120.923 108.144 121.013 109.197 120.954 110.279C120.893 111.361 120.683 112.313 120.323 113.131C119.63 114.829 118.606 116.234 117.25 117.345C115.894 118.457 114.42 118.983 112.824 118.925C111.318 118.866 110.098 118.465 109.165 117.719C108.232 116.974 107.591 116.052 107.244 114.955C106.898 113.858 106.861 112.673 107.132 111.4C107.404 110.127 107.982 108.941 108.872 107.844C109.76 106.747 110.98 105.818 112.531 105.057C114.082 104.296 115.971 103.872 118.201 103.784C118.26 103.755 118.366 103.74 118.516 103.74C118.065 103.36 117.538 103.054 116.935 102.819C116.392 102.614 115.806 102.482 115.174 102.423C114.542 102.364 113.946 102.35 113.391 102.379C112.832 102.408 112.336 102.452 111.899 102.511C111.462 102.57 111.183 102.614 111.063 102.643C110.972 102.205 111.1 101.685 111.446 101.085C111.793 100.485 112.304 99.915 112.981 99.374C113.658 98.833 114.487 98.38 115.465 98.013C116.443 97.6479 117.549 97.4644 118.785 97.4644C120.232 97.4644 121.45 97.6842 122.448 98.1219C123.444 98.5616 124.247 99.1618 124.859 99.9207C125.471 100.682 125.906 101.595 126.166 102.664C126.426 103.732 126.556 104.879 126.556 106.108V114.974C126.556 115.706 126.593 116.291 126.67 116.729C126.744 117.169 126.843 117.513 126.963 117.761C127.083 118.01 127.203 118.17 127.325 118.245C127.445 118.318 127.536 118.354 127.597 118.354V118.75V118.751ZM118.833 104.094C117.628 104.094 116.491 104.241 115.422 104.531C114.353 104.824 113.418 105.277 112.621 105.892C111.822 106.506 111.19 107.282 110.724 108.219C110.258 109.155 110.023 110.253 110.023 111.51C110.023 112.124 110.09 112.74 110.226 113.353C110.362 113.967 110.588 114.538 110.903 115.064C111.22 115.592 111.618 116.045 112.1 116.425C112.58 116.805 113.168 117.054 113.861 117.171C114.583 117.318 115.262 117.287 115.894 117.083C116.526 116.878 117.114 116.578 117.656 116.182C118.199 115.787 118.671 115.313 119.079 114.756C119.486 114.2 119.809 113.63 120.051 113.045C120.323 112.344 120.509 111.591 120.616 110.784C120.72 109.979 120.73 109.175 120.639 108.37C120.549 107.565 120.352 106.797 120.051 106.066C119.75 105.336 119.342 104.677 118.831 104.092L118.833 104.094Z" fill="#67141C"/>
<path d="M132.701 118.631C132.701 120.521 132.453 122.186 131.956 123.628C131.46 125.067 130.806 126.275 129.999 127.25C129.19 128.225 128.283 128.959 127.275 129.454C126.268 129.947 125.244 130.196 124.207 130.196V129.89C124.888 129.89 125.488 129.729 126.008 129.41C126.527 129.089 126.978 128.668 127.364 128.145C127.75 127.621 128.068 127.017 128.32 126.334C128.572 125.65 128.787 124.96 128.966 124.262C129.352 122.634 129.558 120.756 129.588 118.633V101.633C129.588 101.476 129.576 101.316 129.55 101.161C129.436 100.509 129.295 100.079 129.121 99.8688C128.929 99.6356 128.773 99.519 128.655 99.519L128.521 99.1692C130.535 98.4122 132.703 99.8554 132.703 101.952V118.631H132.701ZM130.737 94.0424C130.141 94.0424 129.643 93.8455 129.24 93.4498C128.838 93.0541 128.635 92.5647 128.635 91.9798C128.635 91.3949 128.836 90.9055 129.24 90.5098C129.641 90.1141 130.141 89.9172 130.737 89.9172C131.334 89.9172 131.832 90.1141 132.235 90.5098C132.636 90.9055 132.839 91.3949 132.839 91.9798C132.839 92.5647 132.638 93.056 132.235 93.4498C131.834 93.8455 131.334 94.0424 130.737 94.0424Z" fill="#67141C"/>
<path d="M155.831 118.751H151.629V106.112C151.629 105.323 151.592 104.445 151.517 103.478C151.442 102.513 151.253 101.607 150.952 100.756C150.651 99.9073 150.19 99.1981 149.574 98.6285C148.956 98.0569 148.106 97.7721 147.022 97.7721C145.937 97.7721 144.997 97.925 144.198 98.2328C143.398 98.5406 142.759 98.898 142.279 99.3071C141.796 99.7181 141.48 100.127 141.33 100.536C141.178 100.945 141.21 101.268 141.42 101.502C141.541 101.649 141.743 101.758 142.031 101.83C142.316 101.903 142.641 101.97 143.001 102.027C143.363 102.087 143.747 102.144 144.152 102.203C144.56 102.262 144.943 102.364 145.304 102.511C146.297 102.891 147.089 103.497 147.675 104.333C148.262 105.166 148.677 106.095 148.917 107.12C149.157 108.144 149.248 109.197 149.189 110.279C149.128 111.361 148.917 112.313 148.557 113.131C147.864 114.829 146.841 116.234 145.485 117.345C144.129 118.457 142.655 118.983 141.058 118.925C139.553 118.866 138.332 118.465 137.4 117.719C136.467 116.974 135.825 116.052 135.479 114.955C135.132 113.858 135.095 112.673 135.367 111.4C135.638 110.127 136.217 108.941 137.106 107.844C137.994 106.747 139.214 105.818 140.765 105.057C142.316 104.296 144.205 103.872 146.435 103.784C146.494 103.755 146.601 103.74 146.75 103.74C146.299 103.36 145.772 103.054 145.17 102.819C144.627 102.614 144.04 102.482 143.408 102.423C142.777 102.364 142.18 102.35 141.625 102.379C141.066 102.408 140.57 102.452 140.133 102.511C139.696 102.57 139.417 102.614 139.297 102.643C139.206 102.205 139.334 101.685 139.681 101.085C140.027 100.485 140.539 99.915 141.216 99.374C141.893 98.833 142.721 98.38 143.7 98.013C144.678 97.6479 145.784 97.4644 147.02 97.4644C148.466 97.4644 149.685 97.6842 150.682 98.1219C151.678 98.5616 152.481 99.1618 153.093 99.9207C153.706 100.682 154.14 101.595 154.4 102.664C154.66 103.732 154.79 104.879 154.79 106.108V114.974C154.79 115.706 154.827 116.291 154.904 116.729C154.979 117.169 155.077 117.513 155.197 117.761C155.317 118.01 155.437 118.17 155.559 118.245C155.68 118.318 155.77 118.354 155.831 118.354V118.75V118.751ZM147.067 104.094C145.863 104.094 144.725 104.241 143.656 104.531C142.588 104.824 141.653 105.277 140.856 105.892C140.057 106.506 139.425 107.282 138.958 108.219C138.492 109.155 138.258 110.253 138.258 111.51C138.258 112.124 138.325 112.74 138.46 113.353C138.596 113.967 138.823 114.538 139.137 115.064C139.454 115.592 139.852 116.045 140.334 116.425C140.814 116.805 141.403 117.054 142.096 117.171C142.818 117.318 143.497 117.287 144.129 117.083C144.76 116.878 145.349 116.578 145.89 116.182C146.433 115.787 146.906 115.313 147.313 114.756C147.72 114.2 148.043 113.63 148.285 113.045C148.557 112.344 148.744 111.591 148.85 110.784C148.954 109.979 148.964 109.175 148.874 108.37C148.783 107.565 148.586 106.797 148.285 106.066C147.984 105.336 147.577 104.677 147.065 104.092L147.067 104.094Z" fill="#67141C"/>
<path d="M126.223 47.427H39.3562C38.4509 47.427 37.7168 46.714 37.7168 45.8347H124.584C125.489 45.8347 126.223 46.5477 126.223 47.427Z" fill="#67141C"/>
<path d="M36.9814 129.997H123.305C124.925 129.997 126.507 129.517 127.84 128.625L36.9814 129.997Z" fill="#67141C"/>
<path d="M36.9815 129.213C58.1407 129.305 95.968 129.471 116.734 129.563L122.429 129.588C124.161 129.682 125.85 129.376 127.336 128.5L127.491 128.431L127.572 128.401L127.613 128.386L127.635 128.38C127.724 128.491 127.47 128.122 127.838 128.626C128.192 129.139 127.926 128.779 128.003 128.898C127.67 129.253 127.206 129.458 126.767 129.662C125.431 130.289 123.888 130.454 122.429 130.41L116.734 130.435C109.473 130.467 90.0538 130.551 82.5533 130.584L38.5953 130.777C37.7038 130.781 36.9795 130.081 36.9795 129.215L36.9815 129.213Z" fill="#67141C"/>
<path d="M112.374 39.1753L112.738 39.6398C113.163 40.1827 113.663 40.6663 114.222 41.0811L114.7 41.4348L114.37 41.6794C113.714 42.165 113.128 42.7346 112.626 43.3731L112.374 43.6942L112.122 43.3731C111.622 42.7365 111.036 42.1669 110.379 41.6794L110.048 41.4348L110.534 41.0735C111.087 40.6644 111.579 40.1846 112 39.6474L112.372 39.1753H112.374Z" fill="#67141C"/>
<path d="M118.271 39.1753L118.635 39.6398C119.06 40.1827 119.56 40.6663 120.119 41.0811L120.597 41.4348L120.266 41.6794C119.611 42.165 119.024 42.7346 118.523 43.3731L118.271 43.6942L118.019 43.3731C117.519 42.7365 116.932 42.1669 116.275 41.6794L115.944 41.4348L116.43 41.0735C116.984 40.6644 117.476 40.1846 117.897 39.6474L118.269 39.1753H118.271Z" fill="#67141C"/>
<path d="M62.506 135.569L62.8701 136.034C63.2952 136.577 63.7951 137.06 64.3541 137.475L64.8323 137.829L64.5017 138.073C63.8463 138.559 63.2598 139.129 62.7579 139.767L62.506 140.088L62.2541 139.767C61.7542 139.131 61.1677 138.561 60.5103 138.073L60.1797 137.829L60.6658 137.468C61.2188 137.058 61.7109 136.579 62.1321 136.041L62.504 135.569H62.506Z" fill="#67141C"/>
<path d="M68.4025 135.569L68.7666 136.034C69.1917 136.577 69.6916 137.06 70.2506 137.475L70.7288 137.829L70.3982 138.073C69.7428 138.559 69.1563 139.129 68.6544 139.767L68.4025 140.088L68.1506 139.767C67.6507 139.131 67.0642 138.561 66.4068 138.073L66.0762 137.829L66.5623 137.468C67.1153 137.058 67.6074 136.579 68.0285 136.041L68.4005 135.569H68.4025Z" fill="#67141C"/>
<path d="M74.8351 135.569L75.1992 136.034C75.6243 136.577 76.1242 137.06 76.6832 137.475L77.1614 137.829L76.8308 138.073C76.1754 138.559 75.5889 139.129 75.087 139.767L74.8351 140.088L74.5832 139.767C74.0833 139.131 73.4968 138.561 72.8394 138.073L72.5088 137.829L72.9949 137.468C73.548 137.058 74.04 136.579 74.4612 136.041L74.8331 135.569H74.8351Z" fill="#67141C"/>
<path d="M101.153 55.4237C100.556 55.4237 100.058 55.2268 99.655 54.8311C99.2535 54.4354 99.0508 53.9461 99.0508 53.3612C99.0508 52.7762 99.2515 52.2869 99.655 51.8912C100.056 51.4955 100.556 51.2986 101.153 51.2986C101.749 51.2986 102.247 51.4955 102.65 51.8912C103.052 52.2869 103.255 52.7762 103.255 53.3612C103.255 53.9461 103.054 54.4374 102.65 54.8311C102.249 55.2268 101.749 55.4237 101.153 55.4237Z" fill="#67141C"/>
</svg>
