<svg width="31" height="33" viewBox="0 0 31 33" fill="none" xmlns="http://www.w3.org/2000/svg">
<path d="M15.5002 0C9.05217 0 3.80664 5.58395 3.80664 12.4471C3.80664 22.3288 14.2455 32.2558 14.6901 32.6743C14.9226 32.8914 15.2114 33 15.5002 33C15.8004 33 16.1006 32.8828 16.3347 32.6492C16.7777 32.208 27.1937 21.7348 27.1937 12.4479C27.1937 5.58482 21.9465 0 15.5002 0ZM15.5002 18.3827C12.4206 18.3827 9.92506 15.7245 9.92506 12.4488C9.92506 9.17313 12.4206 6.51489 15.5002 6.51489C18.5781 6.51489 21.0736 9.17226 21.0736 12.4488C21.0736 15.7254 18.5781 18.3827 15.5002 18.3827Z" fill="#902036"/>
</svg>
