<svg width="35" height="35" viewBox="0 0 35 35" fill="none" xmlns="http://www.w3.org/2000/svg">
<rect width="35" height="35" rx="5" fill="#75192E"/>
<path d="M21.2461 18.1192L29 23.0792V12.9497L21.2461 18.1192Z" fill="#F3F3F3"/>
<path d="M6 12.9497V23.0792L13.7539 18.1192L6 12.9497Z" fill="#F3F3F3"/>
<path d="M27.5623 10H7.43734C6.72003 10 6.15078 10.5411 6.04297 11.2378L17.4998 18.8756L28.9567 11.2378C28.8489 10.5411 28.2797 10 27.5623 10Z" fill="#F3F3F3"/>
<path d="M19.9293 18.9978L17.8952 20.3534C17.7745 20.4334 17.6379 20.4727 17.4999 20.4727C17.3619 20.4727 17.2253 20.4334 17.1046 20.3534L15.0705 18.9963L6.0459 24.7723C6.15659 25.4632 6.72296 25.9999 7.4374 25.9999H27.5624C28.2768 25.9999 28.8432 25.4632 28.9539 24.7723L19.9293 18.9978Z" fill="#F3F3F3"/>
</svg>
