<svg width="35" height="35" viewBox="0 0 35 35" fill="none" xmlns="http://www.w3.org/2000/svg">
<rect width="35" height="35" rx="5" fill="#75192E"/>
<path d="M26.4211 21.1684C25.2025 21.1708 23.9914 20.9782 22.8337 20.5979C22.2923 20.4089 21.6909 20.5362 21.2726 20.9284L19.0011 22.6421C16.5616 21.4173 14.5821 19.4383 13.3569 16.999L15.0253 14.7821C15.4465 14.3606 15.5972 13.7392 15.4158 13.1716C15.0341 12.0123 14.8404 10.7994 14.8421 9.57895C14.8421 8.70692 14.1352 8 13.2632 8H9.57895C8.70692 8 8 8.70692 8 9.57895C8.0116 19.7478 16.2522 27.9884 26.4211 28C27.2931 28 28 27.2931 28 26.4211V22.7474C28 21.8754 27.2931 21.1684 26.4211 21.1684Z" fill="#F3F3F3"/>
</svg>
