<svg width="20" height="20" viewBox="0 0 20 20" fill="none" xmlns="http://www.w3.org/2000/svg">
<path d="M18.4211 13.1684C17.2025 13.1708 15.9914 12.9782 14.8337 12.5979C14.2923 12.4089 13.6909 12.5362 13.2726 12.9284L11.0011 14.6421C8.56155 13.4173 6.58214 11.4383 5.35688 8.99897L7.02529 6.78213C7.44652 6.3606 7.59716 5.73923 7.41583 5.1716C7.03412 4.01231 6.84045 2.79943 6.84213 1.57895C6.84213 0.706925 6.1352 0 5.26318 0H1.57895C0.706925 0 0 0.706925 0 1.57895C0.0115954 11.7478 8.25218 19.9884 18.4211 20C19.2931 20 20 19.2931 20 18.4211V14.7474C20 13.8754 19.2931 13.1684 18.4211 13.1684Z" fill="#F3F3F3"/>
</svg>
